<?xml version="1.0" standalone="no"?>
<!DOCTYPE svg PUBLIC "-//W3C//DTD SVG 1.1//EN" "http://www.w3.org/Graphics/SVG/1.1/DTD/svg11.dtd" >
<svg xmlns="http://www.w3.org/2000/svg" xmlns:xlink="http://www.w3.org/1999/xlink" version="1.1">
<metadata>
Created by FontForge 20161116 at Fri Jan  1 01:00:00 1904
 By Jimmy Wärting
Copyright 1985-1994 Adobe Systems Inc.
</metadata>
<defs>
<font id="Myriad-Roman" horiz-adv-x="1051" >
  <font-face 
    font-family="Myriad Roman"
    font-weight="400"
    font-stretch="normal"
    units-per-em="2048"
    panose-1="2 11 5 0 0 0 0 0 0 0"
    ascent="1638"
    descent="-410"
    x-height="991"
    cap-height="1380"
    bbox="-94 -512 2306 1702"
    underline-thickness="102"
    underline-position="-256"
    unicode-range="U+0020-F002"
  />
    <missing-glyph />
    <glyph glyph-name="two" horiz-adv-x="0" 
 />
    <glyph glyph-name="glyph1" horiz-adv-x="0" 
 />
    <glyph glyph-name="equal" unicode=" " horiz-adv-x="434" 
 />
    <glyph glyph-name="uni00A0" unicode="&#xa0;" horiz-adv-x="434" 
 />
    <glyph glyph-name="greater" unicode="!" horiz-adv-x="471" 
d="M305 395l29 985h-197l29 -985h139zM236 -23q55 3 90 39q30 35 30 88q0 58 -30 93q-35 34 -90 34q-54 0 -84 -34q-37 -35 -37 -93q0 -53 34 -88q31 -36 84 -39h3z" />
    <glyph glyph-name="question" unicode="&#x22;" horiz-adv-x="690" 
d="M104 1417l33 -491h111l33 491h-177zM410 1417l32 -491h111l33 491h-176z" />
    <glyph glyph-name="at" unicode="#" horiz-adv-x="1018" 
d="M385 522l39 297h213l-39 -297h-213zM315 0l52 401h213l-54 -401h123l53 401h195v121h-176l37 297h186v121h-168l51 391h-120l-52 -391h-215l54 391h-121l-54 -391h-194v-121h178l-39 -297h-188v-121h170l-54 -401h123z" />
    <glyph glyph-name="A" unicode="$" 
d="M575 -176v213q160 31 244 129q80 96 80 221q0 258 -317 373q-131 55 -193 108q-61 51 -61 125q0 68 51 123q29 25 67 41q41 14 99 14q98 -2 164 -24q63 -27 94 -47l51 135q-43 29 -107 49q-67 18 -159 23v198h-129v-205q-140 -22 -221 -110q-86 -88 -86 -219
q0 -129 92 -213q88 -84 245 -144q230 -84 232 -243q-2 -88 -68 -142q-65 -59 -178 -59q-176 4 -291 88v0l-49 -137q121 -82 311 -90v-207h129z" />
    <glyph glyph-name="B" unicode="%" horiz-adv-x="1622" 
d="M383 1354q-135 0 -225 -107q-95 -108 -97 -309q7 -201 97 -299q86 -102 215 -102q133 0 225 106q90 104 92 313q-8 394 -305 398h-2zM379 1245q94 -2 135 -86q37 -86 37 -211q0 -135 -41 -217q-43 -84 -131 -86q-84 0 -129 88q-47 82 -45 211q0 129 45 215q43 84 127 86
h2zM1251 803q-135 0 -225 -107q-94 -108 -96 -309q6 -201 96 -299q86 -102 215 -102q133 0 225 106q90 105 92 313q-8 394 -305 398h-2zM1247 694q94 -2 135 -86q37 -86 37 -211q0 -135 -41 -217q-43 -84 -131 -86q-84 0 -129 88q-47 82 -45 211q0 129 45 215q43 84 127 86
h2zM473 -25l784 1381h-114l-785 -1381h115z" />
    <glyph glyph-name="C" unicode="&#x26;" horiz-adv-x="1239" 
d="M1233 0q-119 129 -228 244q150 182 199 510h-164q-39 -260 -133 -404v0q-145 164 -336 385v6q164 82 236 172q67 90 67 197q-2 137 -86 215q-86 78 -219 78q-172 -4 -262 -107q-90 -100 -90 -233q2 -150 117 -289v-6q-119 -64 -193 -162q-78 -100 -78 -241
q0 -158 113 -271q111 -114 311 -117q228 -2 404 156v0q76 -78 129 -133h213zM518 113q-125 0 -201 82q-79 77 -79 196q2 111 61 180q57 68 117 101v0q245 -283 387 -434q-101 -121 -283 -125h-2zM559 1280q86 -2 125 -55q35 -56 35 -123q0 -84 -60 -148q-61 -63 -170 -123v0
q-43 56 -71 117q-33 57 -33 131q0 84 45 142q43 57 127 59h2z" />
    <glyph glyph-name="Ucircumflex" unicode="&#x2019;" horiz-adv-x="424" 
d="M190 1397q-45 -260 -120 -480l114 13q103 186 191 487z" />
    <glyph glyph-name="E" unicode="(" horiz-adv-x="582" 
d="M399 1421q-98 -127 -180 -332q-80 -204 -88 -505q2 -297 86 -500q82 -205 182 -332h140q-111 152 -181 357q-75 200 -75 473q0 278 73 485q70 205 183 354h-140z" />
    <glyph glyph-name="F" unicode=")" horiz-adv-x="582" 
d="M180 -248q103 131 185 334q79 203 83 502q-2 301 -83 506q-82 204 -185 327h-139q113 -151 184 -354q70 -205 72 -479q-2 -275 -72 -479q-73 -205 -184 -357h139z" />
    <glyph glyph-name="G" unicode="*" horiz-adv-x="850" 
d="M551 1403v0l-125 -285h-4l-127 283v0l-125 -70l192 -252v-4l-301 39v0v-139v0l304 39v-4l-195 -250l117 -74v0l131 289h4l125 -287v0l129 72l-197 248v4l309 -37v0v139v0l-309 -41v4l195 254z" />
    <glyph glyph-name="H" unicode="+" horiz-adv-x="1221" 
d="M545 1089v-481h-463v-123h463v-485h131v485h463v123h-463v481h-131z" />
    <glyph glyph-name="I" unicode="," horiz-adv-x="424" 
d="M160 -240q104 191 196 498l-200 -20q-45 -267 -123 -492z" />
    <glyph glyph-name="J" unicode="-" horiz-adv-x="629" 
d="M61 618v-131h506v131h-506z" />
    <glyph glyph-name="uni00AD" unicode="&#xad;" horiz-adv-x="629" 
d="M61 618v-131h506v131h-506z" />
    <glyph glyph-name="K" unicode="." horiz-adv-x="424" 
d="M227 -23q56 3 90 39q33 35 33 90q0 60 -33 95q-30 35 -88 35q-53 0 -86 -35q-37 -37 -37 -95q0 -55 35 -90q31 -36 84 -39h2z" />
    <glyph glyph-name="L" unicode="/" horiz-adv-x="702" 
d="M135 -82l574 1485h-142l-569 -1485h137z" />
    <glyph glyph-name="M" unicode="0" 
d="M518 -23q455 7 461 703q-6 663 -440 674q-451 -7 -465 -693q28 -677 442 -684h2zM522 117q-125 0 -196 149q-72 146 -72 406q0 254 74 397q71 143 196 145q142 -2 207 -147q64 -145 64 -395q0 -256 -66 -404q-68 -149 -205 -151h-2z" />
    <glyph glyph-name="N" unicode="1" 
d="M483 0h174v1331h-153l-291 -156l35 -137v0l231 125h4v-1163z" />
    <glyph glyph-name="O" unicode="2" 
d="M942 0v149h-596v5l105 98q215 201 335 368q121 166 123 347q0 149 -94 266q-96 117 -311 121q-236 -7 -377 -136l57 -126v0q47 43 121 77q72 33 162 35q147 -2 207 -78q57 -77 55 -182q4 -256 -496 -696l-141 -137v-111h850z" />
    <glyph glyph-name="P" unicode="3" 
d="M86 68q51 -33 143 -60q90 -28 203 -31q240 5 363 121q122 115 122 279q-2 143 -86 229q-84 88 -211 111v4q244 98 246 315q0 127 -90 221q-94 95 -291 97q-108 -2 -200 -31q-93 -29 -150 -72l49 -131v0q45 33 117 62q70 26 150 26q124 -2 180 -59q53 -57 53 -141
q0 -58 -27 -99q-28 -43 -71 -71q-92 -56 -199 -56h-100v-135h100q137 0 238 -61q100 -64 106 -205q6 -88 -63 -170q-33 -39 -93 -62q-59 -26 -145 -26q-96 2 -174 31q-78 26 -121 51z" />
    <glyph glyph-name="Q" unicode="4" 
d="M819 0v362h186v140h-186v829h-194l-594 -852v-117h618v-362h170zM213 502v4l326 452q53 88 110 199h6q-6 -104 -6 -209v-446h-436z" />
    <glyph glyph-name="R" unicode="5" 
d="M887 1331h-637l-86 -635q72 15 186 15q385 -9 381 -297q-2 -135 -92 -211q-90 -80 -221 -80q-92 0 -168 24q-74 23 -119 50v0l-45 -138q106 -75 332 -82q223 3 358 132q135 127 137 323q-2 131 -55 217t-135 129q-127 72 -287 72q-67 0 -108 -8l51 338h508v151z" />
    <glyph glyph-name="S" unicode="6" 
d="M852 1354q-49 0 -131 -11q-256 -32 -426 -196q-219 -205 -225 -602q2 -260 129 -412q125 -153 340 -156q211 5 327 146q115 135 117 325q-2 197 -111 314q-110 114 -290 117q-111 0 -191 -46q-84 -45 -133 -110h-4q25 172 137 305q115 131 326 168q78 12 135 10v148z
M541 117q-142 2 -215 110q-74 107 -78 273q0 49 18 77q86 160 260 164q269 -6 275 -305q0 -143 -70 -229q-70 -90 -188 -90h-2z" />
    <glyph glyph-name="T" unicode="7" 
d="M117 1331v-149h651v-4l-576 -1178h185l579 1212v119h-839z" />
    <glyph glyph-name="U" unicode="8" 
d="M537 1354q-179 -2 -293 -97q-117 -96 -119 -258q0 -88 51 -166q51 -77 162 -133v-6q-258 -104 -262 -358q0 -150 121 -252q114 -104 325 -107q197 3 324 107t129 281q-6 243 -268 344v6q120 59 172 143q49 82 49 168q0 131 -97 227q-98 99 -292 101h-2zM526 109
q-127 2 -196 77q-70 72 -68 174q2 201 240 277v0q137 -35 215 -103q78 -69 78 -188q0 -104 -70 -168q-72 -69 -197 -69h-2zM534 1225q119 -2 175 -68q49 -65 49 -149q0 -91 -58 -150q-57 -61 -145 -92v0q-115 31 -184 90q-68 57 -70 156q0 88 61 149q60 62 170 64h2z" />
    <glyph glyph-name="V" unicode="9" 
d="M197 -23q65 -2 165 11q226 28 388 178q100 98 163 254q64 153 66 373q-2 262 -117 411q-115 148 -323 150q-207 -4 -330 -142q-125 -135 -127 -329q0 -176 108 -291q105 -117 285 -119q205 2 315 143h7q-41 -235 -177 -354q-116 -110 -278 -129q-90 -12 -145 -8v-148z
M524 1216q142 -2 209 -114q68 -111 64 -287q0 -41 -15 -65q-37 -60 -104 -99q-68 -41 -160 -41q-119 0 -184 82q-72 76 -72 201q0 145 76 233q70 88 184 90h2z" />
    <glyph glyph-name="W" unicode=":" horiz-adv-x="424" 
d="M229 700q56 0 90 39q31 35 31 88q0 60 -31 95q-34 34 -90 34q-53 0 -84 -34q-36 -35 -36 -95q0 -53 34 -88q31 -39 84 -39h2zM227 -23q56 3 90 39q31 35 31 88q0 60 -31 95q-34 34 -90 34q-53 0 -84 -34q-37 -35 -37 -95q0 -53 35 -88q31 -36 84 -39h2z" />
    <glyph glyph-name="X" unicode=";" horiz-adv-x="424" 
d="M160 -240q104 191 196 498l-198 -20q-45 -267 -123 -490zM244 700q55 0 90 39q31 35 31 88q0 60 -31 95q-35 34 -90 34q-54 0 -84 -34q-37 -35 -37 -95q0 -53 35 -88q30 -39 84 -39h2z" />
    <glyph glyph-name="Y" unicode="&#x3c;" horiz-adv-x="1221" 
d="M135 487l950 -487v0v141l-800 400v4l800 401v141v0l-950 -489v-111z" />
    <glyph glyph-name="Z" unicode="=" horiz-adv-x="1221" 
d="M1139 690v123h-1057v-123h1057zM1139 289v123h-1057v-123h1057z" />
    <glyph glyph-name="bracketleft" unicode="&#x3e;" horiz-adv-x="1221" 
d="M1085 600l-950 487v0v-141l807 -401v-4l-807 -400v-141v0l950 485v115z" />
    <glyph glyph-name="backslash" unicode="?" horiz-adv-x="831" 
d="M451 391l-5 53q-14 150 117 301q76 86 127 170q47 84 49 185q0 121 -82 211t-260 92q-176 -2 -293 -84l50 -129v0q86 63 206 63q99 0 148 -47q47 -47 47 -129q-2 -125 -143 -278q-150 -187 -127 -355l4 -53h162zM367 -23q55 3 90 39q30 35 30 88q0 60 -30 95
q-35 34 -90 34q-54 0 -84 -34q-37 -35 -37 -95q0 -53 35 -88q30 -36 84 -39h2z" />
    <glyph glyph-name="bracketright" unicode="@" horiz-adv-x="1509" 
d="M919 713q-18 -101 -88 -187q-34 -41 -75 -65q-43 -27 -88 -27q-68 0 -101 45q-35 41 -35 111q2 155 97 260q92 106 231 108q72 -2 102 -16zM1040 147v0q-127 -71 -309 -71q-231 0 -375 149q-149 144 -151 402q4 317 184 499q174 181 430 183q242 -2 369 -144
q127 -139 127 -368q-2 -177 -70 -275q-67 -100 -151 -98q-103 0 -60 229l68 371q-82 41 -219 43q-215 -4 -349 -145q-135 -142 -137 -340q2 -121 68 -189q61 -69 153 -69q183 0 291 180h6q0 -94 45 -137q43 -43 107 -43q149 0 256 129q104 127 106 358q-2 262 -161 426
q-160 164 -432 166q-345 -4 -543 -234q-203 -227 -205 -553q4 -297 186 -467q177 -169 435 -172q200 -2 364 82z" />
    <glyph glyph-name="asciicircum" unicode="A" horiz-adv-x="1253" 
d="M868 434l148 -434h190l-471 1380h-215l-469 -1380h185l143 434h489zM416 573l135 400q20 65 39 129q16 61 28 121h7q28 -119 69 -252l137 -398h-415z" />
    <glyph glyph-name="underscore" unicode="B" horiz-adv-x="1110" 
d="M156 4q90 -14 276 -16q336 0 475 129q115 100 119 276q-2 154 -92 240q-88 84 -193 104v6q230 88 234 303q-2 164 -117 244q-117 100 -377 100q-196 -2 -325 -30v-1356zM334 1241q39 10 157 12q138 0 220 -51q82 -55 82 -174q0 -100 -78 -164q-78 -69 -219 -69h-162v446z
M334 661h147q152 0 254 -61q101 -63 103 -205q-2 -147 -107 -207q-104 -63 -248 -61q-94 0 -149 8v526z" />
    <glyph glyph-name="grave" unicode="C" horiz-adv-x="1188" 
d="M1083 186v0q-116 -57 -293 -57q-522 10 -528 555q12 563 539 569q176 -2 276 -57v0l45 145q-33 21 -117 41q-81 21 -210 21q-324 -2 -521 -199q-198 -194 -200 -526q2 -342 194 -520q189 -178 486 -181q260 5 364 66z" />
    <glyph glyph-name="a" unicode="D" horiz-adv-x="1364" 
d="M154 4q135 -16 325 -16q410 2 613 198q196 195 198 537q-2 332 -196 498q-179 169 -560 169q-212 -2 -380 -28v-1358zM334 1231q71 16 209 18q563 -10 559 -532q-4 -574 -588 -586q-109 -2 -180 8v1092z" />
    <glyph glyph-name="b" unicode="E" horiz-adv-x="1008" 
d="M868 795h-534v436h567v149h-747v-1380h778v149h-598v498h534v148z" />
    <glyph glyph-name="c" unicode="F" horiz-adv-x="997" 
d="M154 0h180v625h520v147h-520v459h563v149h-743v-1380z" />
    <glyph glyph-name="d" unicode="G" horiz-adv-x="1323" 
d="M1208 725h-454v-143h278v-412q-61 -35 -237 -37q-521 8 -533 557q12 545 555 555q105 0 178 -16q74 -15 127 -43v0l45 145q-98 57 -346 64q-350 -2 -547 -201q-198 -197 -200 -512q4 -332 192 -514q203 -184 516 -182q144 2 254 28q113 25 172 47v664z" />
    <glyph glyph-name="e" unicode="H" horiz-adv-x="1335" 
d="M154 1380v-1380h180v647h667v-647h181v1380h-181v-577h-667v577h-180z" />
    <glyph glyph-name="f" unicode="I" horiz-adv-x="489" 
d="M154 1380v-1380h180v1380h-180z" />
    <glyph glyph-name="g" unicode="J" horiz-adv-x="758" 
d="M436 471q0 -199 -65 -270q-66 -74 -187 -72q-94 0 -151 27l-25 -146q78 -30 191 -33q182 -2 299 105q116 106 118 375v923h-180v-909z" />
    <glyph glyph-name="h" unicode="K" horiz-adv-x="1110" 
d="M156 0h178v526l133 152v0l452 -678h211l-538 795l500 585h-222l-422 -518q-53 -67 -108 -147h-6v665h-178v-1380z" />
    <glyph glyph-name="i" unicode="L" horiz-adv-x="967" 
d="M154 0h770v149h-590v1231h-180v-1380z" />
    <glyph glyph-name="j" unicode="M" horiz-adv-x="1646" 
d="M1352 0h176l-86 1380h-228l-245 -667q-93 -258 -148 -465h-4q-53 213 -139 465l-236 667h-227l-96 -1380h170l37 592q20 334 26 610h4q60 -244 158 -536l225 -658h135l244 670q103 284 174 524h4q2 -280 23 -596z" />
    <glyph glyph-name="k" unicode="N" horiz-adv-x="1347" 
d="M324 0v590q0 325 -13 569l6 2q107 -227 256 -461l439 -700h180v1380h-168v-579q-2 -303 20 -565l-6 -3q-47 107 -108 220q-62 110 -137 229l-441 698h-196v-1380h168z" />
    <glyph glyph-name="l" unicode="O" horiz-adv-x="1411" 
d="M696 -23q271 3 453 187q182 186 186 540q-2 314 -168 504q-166 193 -454 195q-283 -2 -457 -197q-180 -194 -182 -528q2 -318 174 -506q168 -190 446 -195h2zM700 123q-211 4 -323 172q-117 162 -117 387q0 233 113 401q110 170 331 174q224 -6 334 -176
q107 -170 107 -385q0 -239 -115 -403q-115 -168 -328 -170h-2z" />
    <glyph glyph-name="m" unicode="P" horiz-adv-x="1089" 
d="M156 0h178v553q63 -14 143 -12q270 0 422 151q109 109 109 295q-3 188 -123 289q-123 112 -387 114q-213 -2 -342 -28v-1362zM334 1235q49 12 168 14q149 0 237 -65q88 -68 88 -207q-6 -291 -346 -293q-88 0 -147 14v537z" />
    <glyph glyph-name="n" unicode="Q" horiz-adv-x="1411" 
d="M1294 -203l51 150q-186 33 -403 88v8q381 127 393 661q-2 312 -168 504q-166 193 -452 195q-285 -2 -459 -197q-180 -194 -182 -530q2 -334 182 -510q174 -178 426 -189q39 0 84 -20q244 -84 528 -160v0zM702 123q-211 4 -323 170q-117 162 -117 387q0 233 113 401
q110 172 336 176q221 -4 329 -174q107 -168 107 -387q0 -239 -115 -403q-115 -168 -328 -170h-2z" />
    <glyph glyph-name="o" unicode="R" horiz-adv-x="1102" 
d="M156 0h178v598h168q121 0 186 -64q64 -61 92 -204q56 -264 90 -330h185q-39 86 -105 379q-49 219 -203 278v7q111 36 185 126q73 89 76 224q-3 168 -109 262q-123 114 -401 114q-195 -2 -342 -30v-1360zM334 1235q47 14 176 16q143 0 231 -59q84 -64 86 -197
q-6 -256 -311 -262h-182v502z" />
    <glyph glyph-name="p" unicode="S" horiz-adv-x="1010" 
d="M133 217l-47 -149q131 -86 352 -91q246 5 365 121q116 115 116 279q0 151 -86 246q-88 94 -264 159q-139 54 -207 115q-67 59 -67 152q-2 75 61 141q60 63 199 65q96 0 164 -20q65 -23 96 -45l49 145q-92 64 -303 68q-203 -2 -321 -105q-125 -104 -125 -270
q0 -143 98 -238q96 -94 266 -155q141 -49 201 -113q59 -65 59 -160q-4 -229 -288 -235q-191 2 -318 90v0z" />
    <glyph glyph-name="q" unicode="T" horiz-adv-x="1018" 
d="M418 0h180v1229h422v151h-1022v-151h420v-1229z" />
    <glyph glyph-name="r" unicode="U" horiz-adv-x="1325" 
d="M154 1380v-813q2 -319 143 -454q137 -136 352 -136q230 0 375 140q145 143 147 456v807h-180v-819q-8 -442 -336 -438q-311 -6 -321 438v819h-180z" />
    <glyph glyph-name="s" unicode="V" horiz-adv-x="1143" 
d="M655 0l494 1380h-191l-233 -682q-96 -272 -158 -514h-4q-59 238 -147 516l-215 680h-195l453 -1380h196z" />
    <glyph glyph-name="t" unicode="W" horiz-adv-x="1732" 
d="M567 0l197 719q76 254 106 450h4q27 -196 91 -452l174 -717h186l391 1380h-182l-182 -696q-66 -254 -111 -477h-4q-35 221 -96 473l-168 700h-187l-184 -696q-74 -270 -113 -479h-4q-39 209 -102 477l-164 698h-188l350 -1380h186z" />
    <glyph glyph-name="u" unicode="X" horiz-adv-x="1169" 
d="M1118 0l-430 709l420 671h-207l-186 -323q-72 -121 -125 -234h-6q-54 105 -127 234l-183 323h-206l405 -682l-422 -698h205l166 303q98 168 149 274h4q58 -108 158 -272l178 -305h207z" />
    <glyph glyph-name="v" unicode="Y" horiz-adv-x="1108" 
d="M643 0v588l461 792h-201l-199 -381q-81 -153 -139 -284h-4q-61 137 -137 284l-195 381h-204l438 -794v-586h180z" />
    <glyph glyph-name="w" unicode="Z" horiz-adv-x="1132" 
d="M61 0h1008v149h-772v7l762 1116v108h-932v-149h700v-6l-766 -1121v-104z" />
    <glyph glyph-name="x" unicode="[" horiz-adv-x="582" 
d="M541 -229v112h-234v1407h234v113h-375v-1632h375z" />
    <glyph glyph-name="y" unicode="\" horiz-adv-x="709" 
d="M711 -82l-568 1485h-139l567 -1485h140z" />
    <glyph glyph-name="z" unicode="]" horiz-adv-x="582" 
d="M41 1403v-113h233v-1407h-233v-112h375v1632h-375z" />
    <glyph glyph-name="braceleft" unicode="^" horiz-adv-x="1221" 
d="M1098 387l-422 944h-129l-422 -944h141l342 795h4l342 -795h144z" />
    <glyph glyph-name="bar" unicode="_" horiz-adv-x="1024" 
d="M0 -154v-102h1024v102h-1024z" />
    <glyph glyph-name="Uacute" unicode="&#x2018;" horiz-adv-x="424" 
d="M256 938q45 260 121 479l-115 -12q-100 -184 -190 -488z" />
    <glyph glyph-name="asciitilde" unicode="a" horiz-adv-x="987" 
d="M848 608q0 78 -15 150q-16 71 -59 129q-41 59 -115 94q-75 33 -190 33q-197 -2 -328 -86l41 -121v0q113 72 260 74q78 2 123 -21q47 -24 68 -61q22 -35 31 -74q4 -41 4 -74v-20q-592 -2 -596 -369q0 -110 77 -194q74 -86 226 -91q108 3 186 46t117 102h6l16 -125h162
q-14 104 -14 238v370zM672 334q0 -29 -8 -58q-21 -63 -82 -112q-62 -53 -162 -53q-70 0 -117 43q-51 41 -51 129q0 73 39 118q39 43 98 68q64 25 137 33q72 8 146 4v-172z" />
    <glyph glyph-name="Adieresis" unicode="b" horiz-adv-x="1165" 
d="M149 256q0 -143 -8 -256h156l10 164h4q115 -189 332 -187q174 0 307 134q135 133 139 399q-2 229 -116 364q-113 138 -301 140q-242 -4 -338 -181h-4v621h-181v-1198zM330 575q0 43 10 76q29 103 104 162q74 59 168 59q146 -2 221 -108q74 -107 74 -262q0 -170 -78 -275
q-77 -106 -223 -106q-96 0 -170 59q-71 58 -100 152q-6 30 -6 65v178z" />
    <glyph glyph-name="Aring" unicode="c" horiz-adv-x="917" 
d="M825 170q-35 -16 -90 -31q-55 -16 -131 -16q-149 0 -246 100q-96 96 -98 271q0 159 90 268q90 106 260 108q74 0 127 -14q51 -12 82 -33l41 137q-82 50 -250 54q-245 -2 -387 -148q-143 -145 -145 -381q2 -231 135 -366q131 -139 358 -142q54 3 97 9t79 14q74 18 109 35z
" />
    <glyph glyph-name="Ccedilla" unicode="d" horiz-adv-x="1155" 
d="M825 1454v-590h-4q-31 62 -106 107q-76 41 -193 43q-182 -2 -311 -142q-127 -139 -133 -391q2 -227 125 -362q119 -139 301 -142q123 3 209 58q86 53 127 137h4l8 -172h162q-9 113 -9 256v1198h-180zM825 416q0 -41 -8 -78q-12 -49 -37 -88q-24 -39 -61 -68
q-72 -59 -166 -59q-143 2 -217 110q-76 103 -76 258q0 168 80 273q78 106 217 108q102 -2 172 -59q70 -59 88 -147q8 -39 8 -78v-172z" />
    <glyph glyph-name="Eacute" unicode="e" horiz-adv-x="1026" 
d="M946 463q6 31 6 86q0 71 -16 153q-21 78 -66 150t-125 119q-77 45 -200 45q-217 -2 -340 -154q-127 -149 -127 -383q0 -225 131 -360q127 -137 356 -139q121 2 203 22q84 18 129 41l-33 127q-47 -18 -110 -33q-33 -6 -74 -10q-41 -6 -90 -6q-137 0 -234 82
q-96 82 -104 262zM254 594q4 26 10 51t15 49q18 51 51 94q63 95 200 99q76 0 125 -29t76 -74q53 -96 47 -190h-524z" />
    <glyph glyph-name="Ntilde" unicode="f" horiz-adv-x="598" 
d="M346 0v854h238v137h-240v53q-2 117 41 201q41 84 152 86q77 -2 116 -22l23 139q-53 26 -154 29q-131 2 -239 -93q-62 -59 -88 -149q-29 -90 -29 -197v-47h-137v-137h137v-854h180z" />
    <glyph glyph-name="Odieresis" unicode="g" horiz-adv-x="1145" 
d="M997 721q0 174 8 270h-159l-6 -147h-4q-33 65 -105 116q-76 52 -205 54q-178 -2 -309 -135q-137 -136 -139 -390q2 -210 121 -344q114 -139 301 -141q116 0 196 49q80 47 119 117h4v-109q-2 -184 -90 -266t-229 -82q-189 4 -291 80v0l-45 -139q63 -41 151 -59
q88 -23 179 -23q96 0 192 29q94 26 170 90q72 67 109 176q32 108 32 278v576zM817 424q0 -51 -14 -96q-29 -88 -94 -136q-68 -51 -156 -51q-143 2 -217 107q-76 102 -76 250q0 176 84 276q80 100 211 100q102 -2 166 -55q61 -55 86 -137q10 -37 10 -80v-178z" />
    <glyph glyph-name="Udieresis" unicode="h" horiz-adv-x="1137" 
d="M149 0h181v598q-2 51 12 86q29 76 92 127q64 51 150 53q127 -2 180 -86q49 -82 49 -209v-569h180v590q0 129 -35 213q-34 84 -88 129q-53 45 -110 65q-60 17 -113 17q-102 0 -184 -52q-84 -47 -129 -126h-4v618h-181v-1454z" />
    <glyph glyph-name="aacute" unicode="i" horiz-adv-x="479" 
d="M330 0v991h-181v-991h181zM238 1173q55 0 86 37q30 33 30 80q0 51 -30 82q-31 33 -84 33q-54 0 -84 -33q-33 -31 -33 -82q0 -47 33 -80q28 -37 80 -37h2z" />
    <glyph glyph-name="agrave" unicode="j" horiz-adv-x="498" 
d="M-74 -432q76 0 162 27q84 28 145 86q121 127 119 407v903h-180v-833q0 -174 -14 -252q-19 -82 -56 -121q-67 -68 -196 -76zM260 1173q57 0 88 37q29 33 29 80q0 51 -31 82q-31 33 -84 33t-84 -33q-33 -31 -33 -82q0 -47 33 -80q29 -37 80 -37h2z" />
    <glyph glyph-name="acircumflex" unicode="k" horiz-adv-x="960" 
d="M330 1454h-181v-1454h181v373l92 104v0l340 -477h219l-436 584l383 407h-215l-293 -342q-45 -55 -86 -112h-4v917z" />
    <glyph glyph-name="adieresis" unicode="l" horiz-adv-x="479" 
d="M149 0h181v1454h-181v-1454z" />
    <glyph glyph-name="atilde" unicode="m" horiz-adv-x="1708" 
d="M149 0h177v598q0 47 14 88q22 70 82 125q59 53 141 55q105 -2 156 -73q51 -76 51 -199v-594h176v614q0 50 14 90q27 68 82 115q56 45 133 47q215 -4 215 -305v-561h177v584q0 129 -31 215q-31 82 -82 131q-49 47 -107 67q-55 17 -108 17q-70 0 -121 -17q-51 -18 -96 -53
q-64 -45 -113 -129h-4q-33 90 -104 143q-72 54 -174 56q-121 -2 -197 -54q-76 -55 -117 -129h-6l-8 160h-158q8 -117 8 -268v-723z" />
    <glyph glyph-name="aring" unicode="n" horiz-adv-x="1137" 
d="M149 0h181v598q0 47 12 84q27 80 92 131q64 51 150 53q127 -2 180 -86q49 -86 49 -209v-571h180v592q0 129 -35 211q-34 84 -88 129q-53 45 -112 65q-60 17 -115 17q-123 -2 -207 -56q-84 -55 -121 -129h-4l-10 162h-160q8 -117 8 -268v-723z" />
    <glyph glyph-name="ccedilla" unicode="o" horiz-adv-x="1124" 
d="M555 -23q186 0 336 127q151 127 155 402q-2 231 -131 368q-129 138 -346 140q-209 0 -346 -138q-143 -137 -145 -389q2 -235 139 -370q131 -137 336 -140h2zM557 113q-131 2 -213 110q-84 105 -84 271q0 147 74 264q74 116 229 121q160 -5 230 -125q67 -119 67 -254
q-2 -172 -84 -277q-86 -108 -217 -110h-2z" />
    <glyph glyph-name="eacute" unicode="p" horiz-adv-x="1165" 
d="M149 -405h181v538h4q98 -153 305 -156q182 0 313 134q133 133 137 399q-2 231 -118 366q-117 136 -303 138q-242 -2 -351 -193h-4l-10 170h-162q8 -137 8 -323v-1073zM330 575q0 35 10 74q31 103 106 162q74 59 168 59q146 -2 219 -108q74 -105 74 -260q0 -172 -78 -277
q-77 -106 -223 -106q-96 0 -170 59q-71 58 -98 152q-8 35 -8 73v172z" />
    <glyph glyph-name="egrave" unicode="q" horiz-adv-x="1153" 
d="M825 -405h180v1124q0 153 9 272h-172l-6 -149h-5q-36 75 -112 123q-76 47 -193 49q-164 0 -301 -127q-143 -129 -147 -408q2 -229 125 -362q119 -137 295 -140q120 3 202 54q80 49 121 121h4v-557zM825 403q0 -45 -14 -86q-72 -194 -258 -196q-148 2 -219 110
q-74 107 -74 258q0 172 82 277q78 102 217 104q102 -2 170 -59q66 -59 88 -145q8 -35 8 -76v-187z" />
    <glyph glyph-name="ecircumflex" unicode="r" horiz-adv-x="670" 
d="M149 0h181v528q0 47 6 86q18 103 84 166q61 64 157 64q35 0 64 -4v168q-23 6 -49 6q-90 0 -166 -58q-76 -57 -111 -159h-6l-8 194h-158q9 -135 9 -309z" />
    <glyph glyph-name="edieresis" unicode="s" horiz-adv-x="811" 
d="M125 182l-43 -135q110 -67 278 -70q177 3 273 84q96 82 96 215q-2 215 -260 299q-94 35 -141 74q-45 37 -45 96q0 58 43 97q41 39 120 39q72 -2 123 -19q54 -18 80 -39l43 129q-86 60 -241 62q-158 -2 -250 -84q-92 -84 -92 -207q-3 -180 264 -281q98 -34 141 -75
q41 -43 41 -107q0 -63 -45 -104q-47 -43 -145 -43q-68 0 -132 24q-65 21 -108 45v0z" />
    <glyph glyph-name="iacute" unicode="t" horiz-adv-x="678" 
d="M367 1229l-177 -56v-182h-153v-137h153v-541q-2 -176 70 -260q68 -73 195 -76q106 3 159 25l-8 137q-35 -12 -104 -12q-140 2 -135 192v535h258v137h-258v238v0z" />
    <glyph glyph-name="igrave" unicode="u" horiz-adv-x="1128" 
d="M979 991h-180v-606q0 -53 -17 -92q-24 -64 -84 -113q-61 -51 -153 -53q-119 0 -170 90q-51 84 -51 227v547h-181v-579q0 -129 33 -211q33 -86 82 -135q51 -48 111 -68q59 -21 116 -21q133 3 215 64q80 59 113 121h4l10 -162h160q-8 117 -8 270v721z" />
    <glyph glyph-name="icircumflex" unicode="v" horiz-adv-x="985" 
d="M27 991l376 -991h172l390 991h-189l-192 -555q-50 -135 -84 -256h-6q-31 121 -80 256l-195 555h-192z" />
    <glyph glyph-name="idieresis" unicode="w" horiz-adv-x="1507" 
d="M37 991l299 -991h164l159 471q54 156 91 330h4q36 -166 88 -328l151 -473h164l320 991h-179l-141 -497q-49 -172 -76 -322h-6q-33 150 -88 324l-154 495h-151l-162 -504q-51 -163 -88 -315h-6q-29 154 -72 317l-133 502h-184z" />
    <glyph glyph-name="ntilde" unicode="x" horiz-adv-x="948" 
d="M33 991l336 -485l-353 -506h199l143 223q56 86 105 172h4q51 -88 106 -172l146 -223h205l-347 512l338 479h-196l-137 -211q-52 -78 -101 -162h-6q-47 80 -100 162l-142 211h-200z" />
    <glyph glyph-name="oacute" unicode="y" horiz-adv-x="965" 
d="M18 991l365 -915q14 -31 14 -45q0 -17 -14 -43q-72 -140 -152 -201q-84 -70 -157 -88l45 -152q35 7 94 33q59 27 127 82q166 137 340 623l270 706h-190l-197 -581q-37 -113 -63 -207h-4q-27 96 -66 202l-215 586h-197z" />
    <glyph glyph-name="ograve" unicode="z" horiz-adv-x="876" 
d="M37 0h805v143h-580v4q68 74 127 154l444 578v112h-755v-143h538v-4q-67 -76 -131 -156l-448 -584v-104z" />
    <glyph glyph-name="ocircumflex" unicode="{" horiz-adv-x="582" 
d="M57 537q56 0 88 -13q33 -14 52 -39q28 -49 26 -102q-2 -80 -14 -164q-19 -84 -19 -168q2 -151 86 -217q82 -63 211 -63h43v112h-34q-166 4 -164 178q0 72 14 148q14 74 16 156q-4 192 -147 223v4q35 10 64 28q28 17 47 44q39 51 36 149q-2 82 -16 156q-14 73 -14 145
q-4 170 164 176h34v113h-41q-131 0 -213 -62q-84 -65 -86 -206q0 -84 17 -170q14 -86 16 -172q2 -56 -26 -101q-33 -51 -140 -51v-104z" />
    <glyph glyph-name="odieresis" unicode="|" horiz-adv-x="489" 
d="M176 1536v-2048h137v2048h-137z" />
    <glyph glyph-name="otilde" unicode="}" horiz-adv-x="582" 
d="M524 641q-53 0 -84 16q-32 13 -51 35q-33 45 -31 101q0 86 17 172q14 86 16 170q-2 141 -82 206q-82 62 -217 62h-41v-113h35q168 -6 164 -176q-2 -72 -14 -145q-17 -74 -17 -156q0 -98 41 -149q39 -54 107 -72v-4q-144 -31 -148 -223q0 -82 17 -156q12 -76 14 -148
q2 -174 -164 -178h-35v-112h43q129 0 213 63q82 66 84 217q-2 84 -16 168q-17 84 -17 164q-2 53 31 102q31 49 135 52v104z" />
    <glyph glyph-name="uacute" unicode="~" horiz-adv-x="1221" 
d="M223 432q6 174 121 172q55 0 117 -27q59 -24 129 -63q194 -92 297 -90q98 -2 170 70q35 36 53 98q16 59 10 141h-121q-2 -172 -110 -172q-53 0 -115 27q-63 22 -139 59q-184 94 -291 92q-106 0 -174 -75q-70 -78 -70 -232h123z" />
    <glyph glyph-name="fl" unicode="&#xa1;" horiz-adv-x="471" 
d="M334 -397l-29 977h-139l-29 -977h197zM236 999q-54 0 -84 -34q-37 -35 -37 -93q0 -53 34 -88q33 -39 87 -39q55 0 90 39q30 35 30 88q0 58 -30 93q-31 34 -88 34h-2z" />
    <glyph glyph-name="questiondown" unicode="&#xa2;" 
d="M678 -31v207q78 8 137 27q59 16 88 33l-31 131q-36 -19 -92 -33q-57 -19 -141 -19q-137 0 -227 97q-93 92 -95 262q0 157 91 260q86 104 237 106q76 0 131 -14q53 -16 84 -37l41 137q-80 43 -223 52v202h-129v-207q-189 -32 -299 -168q-113 -135 -113 -337
q2 -228 117 -346q104 -121 295 -144v-209h129z" />
    <glyph glyph-name="exclamdown" unicode="&#xa3;" 
d="M965 0v149h-611v5q107 90 142 221q22 112 8 229h276v129h-293q-22 92 -22 219q0 113 53 185q51 69 170 71q66 0 111 -12q47 -12 73 -29l39 135q-30 23 -86 37q-57 15 -137 15q-172 -2 -280 -109q-111 -106 -113 -291q2 -125 22 -221h-190v-129h209q10 -74 10 -143
q0 -115 -63 -209q-64 -96 -170 -150v-102h852z" />
    <glyph glyph-name="macron" unicode="&#x2215;" horiz-adv-x="856" 
d="M96 -23l778 1377h-114l-778 -1377h114z" />
    <glyph glyph-name="quotedblleft" unicode="&#xa5;" 
d="M598 0v360h319v101h-319v149h319v101h-266l367 620h-189l-221 -418q-51 -104 -82 -190h-6q-35 88 -82 186l-213 422h-192l346 -620h-268v-101h317v-149h-317v-101h317v-360h170z" />
    <glyph glyph-name="quotesinglbase" unicode="&#x192;" 
d="M227 692h187l-45 -403q-25 -320 -199 -322q-64 0 -115 23l-32 -127q53 -33 157 -35q178 2 258 125q80 119 99 321l51 418h262v131h-246l12 105q13 116 64 200q51 82 153 84q62 0 107 -20l33 131q-47 27 -140 31q-202 -4 -288 -142q-45 -63 -70 -139q-24 -78 -33 -156
l-12 -94h-203v-131z" />
    <glyph glyph-name="logicalnot" unicode="&#xa7;" horiz-adv-x="1063" 
d="M268 721q-2 90 92 158v0q54 -29 123 -54q70 -26 129 -51q101 -33 142 -80q41 -49 41 -110q-2 -97 -78 -158q-74 45 -234 98q-118 45 -166 94q-51 46 -49 101v2zM811 1212l45 117q-106 66 -283 68q-159 0 -266 -76q-108 -76 -110 -215q0 -53 22 -98q23 -48 53 -72
q-77 -53 -114 -117q-37 -65 -37 -125q0 -125 100 -196q98 -74 256 -125q143 -47 199 -94q51 -50 51 -121q-2 -80 -63 -121q-64 -43 -164 -45q-92 2 -162 28q-72 27 -111 54v0l-49 -117q127 -86 322 -86q151 0 268 76q117 73 121 231q-2 66 -25 113q-26 47 -53 69
q127 88 131 248q-2 135 -94 209q-92 70 -238 113q-114 37 -184 80q-72 41 -72 116q0 72 64 113q57 39 149 39q84 0 146 -21q61 -18 98 -45v0z" />
    <glyph glyph-name="breve" unicode="&#xa4;" 
d="M524 1094q-141 -2 -235 -84v0l-140 155v0l-92 -94l156 -145q-78 -88 -80 -252q0 -78 25 -140q20 -65 51 -108l-148 -143l88 -91v0l138 152v0q45 -37 106 -59q64 -23 127 -23q64 0 129 23q64 20 111 63v0l141 -156v0l90 91l-153 151q67 80 71 250q-2 156 -71 242l161 145
l-92 94v0l-145 -153v0q-88 80 -236 82h-2zM524 965q121 -3 183 -86q59 -84 59 -197q-2 -154 -78 -223q-76 -70 -166 -68q-82 0 -157 70q-82 67 -84 215q0 123 67 207q64 79 174 82h2z" />
    <glyph glyph-name="D" unicode="'" horiz-adv-x="385" 
d="M104 1417l33 -491h111l33 491h-177z" />
    <glyph glyph-name="apple" unicode="&#x201c;" horiz-adv-x="725" 
d="M256 938q45 260 121 479l-115 -12q-100 -184 -190 -488zM559 938q43 260 121 479l-115 -12q-100 -184 -190 -488z" />
    <glyph glyph-name="Acircumflex" unicode="&#xab;" horiz-adv-x="858" 
d="M475 893h-145l-271 -377l273 -377h145l-274 377zM811 893h-145l-271 -377l273 -377h145l-274 377z" />
    <glyph glyph-name="dotaccent" unicode="&#x2039;" horiz-adv-x="522" 
d="M475 893h-145l-271 -377l273 -377h145l-274 377z" />
    <glyph glyph-name="ring" unicode="&#x203a;" horiz-adv-x="522" 
d="M322 516l-273 -377h143l273 377l-273 377h-145z" />
    <glyph glyph-name="cedilla" unicode="&#xf001;" horiz-adv-x="1071" 
d="M346 0v854h395v-854h181v991h-578v49q0 62 14 115q13 53 39 92q56 82 195 84q137 -4 209 -57l51 137q-19 14 -45 27q-29 12 -64 20q-32 10 -69 16q-37 3 -74 3q-430 -11 -434 -431v-55h-137v-137h137v-854h180z" />
    <glyph glyph-name="hungarumlaut" unicode="&#xf002;" horiz-adv-x="1071" 
d="M346 0v854h231v137h-233v51q-2 123 57 209q31 41 78 64q47 22 117 22q102 0 147 -26v-1311h181v1411q-119 63 -299 66q-207 0 -318 -101q-141 -127 -141 -342v-43h-137v-137h137v-854h180z" />
    <glyph glyph-name="Oacute" unicode="&#x2013;" horiz-adv-x="1024" 
d="M61 582v-123h901v123h-901z" />
    <glyph glyph-name="ae" unicode="&#x2020;" horiz-adv-x="1024" 
d="M428 1380l16 -434l-356 16v-147l356 14l-16 -931h168l-16 931l356 -14v147l-356 -16l16 434h-168z" />
    <glyph glyph-name="ogonek" unicode="&#x2021;" horiz-adv-x="1024" 
d="M430 1380l12 -411l-354 16v-147l354 14v-416l-354 17v-150l352 16l-12 -421h166l-12 421l354 -16v150l-354 -17v416l354 -14v147l-354 -16l12 411h-164z" />
    <glyph glyph-name="caron" unicode="&#x2219;" horiz-adv-x="424" 
d="M211 432q55 0 90 39q33 35 33 88q0 59 -33 94q-31 35 -88 35q-53 0 -86 -35q-37 -35 -37 -94q0 -53 35 -88q31 -39 84 -39h2z" />
    <glyph glyph-name="florin" unicode="&#xb6;" horiz-adv-x="1049" 
d="M600 -100v1361h145v-1361h127v1468q-75 16 -239 16t-275 -39q-110 -41 -174 -106q-30 -31 -53 -68q-22 -36 -35 -77q-26 -80 -26 -164q12 -197 137 -291q123 -98 252 -98h14v-641h127z" />
    <glyph glyph-name="radical" unicode="&#x2022;" horiz-adv-x="577" 
d="M289 489q92 0 153 64q60 61 62 151q-2 95 -62 154q-61 59 -153 61q-90 -2 -152 -61q-61 -61 -63 -154q0 -90 63 -151q62 -64 150 -64h2z" />
    <glyph glyph-name="Lslash" unicode="&#x201a;" horiz-adv-x="424" 
d="M158 -229q102 186 190 487l-184 -20q-45 -261 -121 -480z" />
    <glyph glyph-name="lslash" unicode="&#x201e;" horiz-adv-x="729" 
d="M156 -229q102 186 190 487l-184 -20q-43 -261 -121 -480zM459 -229q102 186 190 487l-184 -20q-45 -261 -121 -480z" />
    <glyph glyph-name="Ograve" unicode="&#x201d;" horiz-adv-x="725" 
d="M190 1397q-43 -260 -120 -480l114 13q103 186 191 487zM494 1397q-46 -260 -121 -480l114 13q103 186 191 487z" />
    <glyph glyph-name="Ecircumflex" unicode="&#xbb;" horiz-adv-x="858" 
d="M322 516l-273 -377h143l273 377l-273 377h-145zM655 516l-272 -377h143l273 377l-273 377h-145z" />
    <glyph glyph-name="Aacute" unicode="&#x2026;" horiz-adv-x="2048" 
d="M340 -23q55 3 90 39q33 35 33 90q0 60 -33 95q-31 35 -88 35q-53 0 -86 -35q-37 -37 -37 -95q0 -55 35 -90q31 -36 84 -39h2zM1020 -23q55 3 90 39q33 35 33 90q0 60 -33 95q-31 35 -88 35q-53 0 -86 -35q-37 -37 -37 -95q0 -55 35 -90q31 -36 84 -39h2zM1700 -23
q55 3 90 39q33 35 33 90q0 60 -33 95q-31 35 -88 35q-53 0 -86 -35q-37 -37 -37 -95q0 -55 35 -90q30 -36 84 -39h2z" />
    <glyph glyph-name="Scaron" unicode="&#x2030;" horiz-adv-x="2367" 
d="M383 1354q-135 0 -225 -107q-95 -108 -97 -309q7 -201 97 -299q86 -102 215 -102q133 0 225 106q90 104 92 313q-8 394 -305 398h-2zM379 1245q94 -2 135 -86q37 -86 37 -211q0 -135 -41 -217q-43 -84 -131 -86q-84 0 -129 88q-47 82 -45 211q0 129 45 215q43 84 127 86
h2zM1251 803q-135 0 -225 -107q-94 -108 -96 -309q6 -201 96 -299q86 -102 215 -102q133 0 225 106q90 105 92 313q-8 394 -305 398h-2zM1247 694q94 -2 135 -86q37 -86 37 -211q0 -135 -41 -217q-43 -84 -131 -86q-84 0 -129 88q-47 82 -45 211q0 129 45 215q43 84 127 86
h2zM1999 803q-135 0 -226 -107q-94 -108 -96 -309q6 -201 96 -299q86 -102 215 -102q134 0 226 106q90 105 92 313q-8 394 -305 398h-2zM1995 694q94 -2 135 -86q37 -86 37 -211q0 -135 -41 -217q-43 -84 -131 -86q-84 0 -129 88q-48 82 -45 211q0 129 45 215q43 84 127 86
h2zM475 -25l782 1381h-114l-783 -1381h115z" />
    <glyph glyph-name="fi" unicode="&#xbf;" horiz-adv-x="831" 
d="M485 999q-53 0 -86 -34q-34 -35 -34 -95q0 -53 34 -88q33 -39 86 -39q56 0 90 39q31 35 31 88q0 60 -33 95q-32 34 -86 34h-2zM403 586l5 -54q14 -147 -117 -303q-76 -84 -123 -168q-53 -84 -53 -186q0 -121 84 -209q84 -92 258 -94q176 4 293 84l-48 129v0
q-90 -61 -208 -63q-97 2 -146 51q-49 47 -49 125q0 69 39 135q37 63 104 145q150 187 127 354l-4 54h-162z" />
    <glyph glyph-name="braceright" unicode="`" horiz-adv-x="614" 
d="M45 1405l250 -293h127l-180 293h-197z" />
    <glyph glyph-name="ellipsis" unicode="&#xb4;" horiz-adv-x="614" 
d="M387 1405l-180 -293h127l250 293h-197z" />
    <glyph glyph-name="threequarters" unicode="&#x2c6;" horiz-adv-x="614" 
d="M246 1405l-193 -293h131l119 192h4l119 -192h135l-196 293h-119z" />
    <glyph glyph-name="glyph130" unicode="&#x2dc;" horiz-adv-x="614" 
d="M149 1149q7 90 54 92q35 0 92 -35q59 -43 125 -45q143 2 137 197h-90q-2 -47 -14 -66q-15 -20 -39 -20q-47 2 -92 35q-35 22 -66 34q-29 13 -66 13q-63 -2 -100 -60q-33 -53 -33 -145h92z" />
    <glyph glyph-name="Gbreve" unicode="&#xaf;" horiz-adv-x="614" 
d="M78 1309v-111h461v111h-461z" />
    <glyph glyph-name="gbreve" unicode="&#x2d8;" horiz-adv-x="614" 
d="M61 1395q0 -95 58 -166q57 -76 188 -78q117 0 182 67q66 66 66 177h-102q-2 -52 -37 -95q-35 -45 -109 -47q-61 0 -98 41t-45 101h-103z" />
    <glyph glyph-name="Idotaccent" unicode="&#x2d9;" horiz-adv-x="614" 
d="M287 1141q43 0 71 32q27 29 27 70q0 45 -27 74q-28 28 -71 28t-72 -28q-31 -29 -31 -74q0 -41 31 -70q27 -32 70 -32h2z" />
    <glyph glyph-name="nonbreakingspace" unicode="&#xa8;" horiz-adv-x="614" 
d="M121 1141q47 0 74 32q24 29 24 70q0 45 -27 74q-28 28 -71 28t-72 -28q-31 -29 -31 -74q0 -41 29 -70q29 -32 72 -32h2zM494 1141q47 0 75 32q25 29 25 70q0 45 -27 74q-28 28 -71 28t-72 -28q-31 -29 -31 -74q0 -41 29 -70q26 -32 69 -32h3z" />
    <glyph glyph-name="Scedilla" unicode="&#x2da;" horiz-adv-x="819" 
d="M412 1474q-97 -2 -152 -55q-57 -55 -57 -137q0 -80 59 -131q57 -57 150 -57q90 0 147 55q57 51 57 133q0 86 -53 139q-55 51 -149 53h-2zM410 1397q49 0 77 -33q29 -33 29 -80t-29 -78q-28 -35 -77 -35q-45 0 -74 37q-29 33 -29 74q0 47 29 82q24 33 72 33h2z" />
    <glyph glyph-name="scedilla" unicode="&#xb8;" horiz-adv-x="614" 
d="M276 6l-96 -172q74 -6 117 -24q41 -21 43 -62q0 -33 -27 -49q-26 -14 -61 -14q-55 0 -111 28l-30 -86q59 -35 139 -37q90 0 151 39q62 39 64 127q-2 62 -43 99q-43 36 -100 43l67 108h-113z" />
    <glyph glyph-name="cacute" unicode="&#x2db;" horiz-adv-x="614" 
d="M336 0q-64 -25 -129 -94q-31 -35 -49 -72q-23 -41 -23 -84q0 -74 51 -115q47 -43 123 -45q90 2 152 33l-19 82q-51 -20 -100 -20q-35 0 -61 24q-25 23 -27 66q2 63 59 125q56 59 133 100h-110z" />
    <glyph glyph-name="Ccaron" unicode="&#x2c7;" horiz-adv-x="614" 
d="M373 1112l194 293h-133l-123 -195h-4l-121 195h-137l199 -293h125z" />
    <glyph glyph-name="Ocircumflex" unicode="&#x2014;" horiz-adv-x="2048" 
d="M61 582v-123h1925v123h-1925z" />
    <glyph glyph-name="Atilde" unicode="&#xc6;" horiz-adv-x="1614" 
d="M182 0l221 485h422l62 -485h659v149h-504l-61 494h491v147h-514l-53 441h586v149h-862l-631 -1380h184zM463 631l178 403q49 113 88 217h8q10 -116 25 -223l45 -397h-344z" />
    <glyph glyph-name="Ydieresis" unicode="&#xaa;" horiz-adv-x="709" 
d="M623 545q-11 73 -11 159v220q0 55 -10 108q-10 49 -41 90t-80 66q-51 22 -129 22q-137 -2 -233 -67l33 -86v0q73 53 174 53q51 0 84 -12q30 -15 45 -37q14 -21 20 -43q4 -23 4 -35v-21q-407 -2 -411 -233q0 -82 57 -135q53 -60 154 -60q73 0 126 31q52 31 82 66h4l11 -86
h121zM481 762q0 -21 -20 -55q-19 -29 -56 -50q-36 -24 -83 -24q-48 0 -82 28q-37 29 -37 78q2 84 92 113q86 29 186 22v-112z" />
    <glyph glyph-name="glyph142" unicode="&#x141;" horiz-adv-x="975" 
d="M932 0v149h-590v523l274 198v142v0l-274 -201v0v569h-180v-690l-172 -127v-137v0l172 125v0v-551h770z" />
    <glyph glyph-name="Otilde" unicode="&#xd8;" horiz-adv-x="1411" 
d="M229 -88v0l129 176v0q152 -108 349 -111q258 0 440 185q184 182 188 540q-2 314 -178 508l127 176l-109 74v0l-120 -166v0q-150 109 -344 109q-277 -2 -453 -195q-182 -194 -184 -526q2 -317 182 -512l-127 -178zM360 324l-4 -2q-98 149 -100 368q0 227 115 395
q110 170 336 174q155 -2 260 -96zM1051 1055h6q98 -181 96 -359q0 -239 -115 -403q-116 -168 -334 -172q-161 0 -258 98z" />
    <glyph glyph-name="Idieresis" unicode="&#x152;" horiz-adv-x="1831" 
d="M1755 149h-598v496h535v148h-535v438h567v149h-659q-55 0 -131 13q-74 8 -180 10q-303 -2 -488 -191q-190 -188 -192 -532q0 -303 176 -498q170 -200 493 -205q95 3 170 11q74 12 136 12h706v149zM977 152q-78 -29 -201 -29q-244 2 -379 158q-135 151 -135 407
q0 260 133 414q131 153 363 155q145 -2 219 -30v-1075z" />
    <glyph glyph-name="fraction" unicode="&#xba;" horiz-adv-x="727" 
d="M367 1210q-136 -2 -230 -92q-98 -90 -100 -252q2 -151 96 -239q90 -93 229 -93q125 0 224 84q98 84 104 258q-2 148 -86 240q-86 92 -235 94h-2zM365 1108q51 0 88 -21q36 -22 59 -57q43 -76 43 -158q0 -106 -51 -170q-53 -65 -137 -65q-78 0 -134 67q-57 64 -57 166
q0 88 45 162q47 74 141 76h3z" />
    <glyph glyph-name="guilsinglleft" unicode="&#xe6;" horiz-adv-x="1583" 
d="M1503 477q6 33 6 82q0 64 -16 141q-19 78 -62 150q-43 74 -118 121q-76 45 -191 45q-241 -4 -346 -209h-4q-57 205 -319 209q-162 -2 -310 -88l43 -119v0q101 70 254 74q76 0 121 -27t70 -66q24 -36 33 -71q6 -37 6 -58v-41q-592 -2 -596 -360q0 -111 78 -192
q77 -86 231 -88q264 4 367 219h6q47 -105 147 -162q100 -55 229 -57q203 2 326 67l-33 127q-39 -18 -102 -35q-64 -20 -168 -20q-141 0 -229 94q-88 90 -88 266zM674 354q0 -37 -10 -71q-21 -70 -80 -119q-62 -49 -160 -51q-72 0 -121 45q-51 41 -51 118q0 74 41 119
q39 45 100 70q131 43 281 35v-146zM838 608q6 92 69 185q33 45 82 69q49 27 115 27q71 0 117 -29q45 -29 71 -74q51 -94 45 -178h-499z" />
    <glyph glyph-name="onequarter" unicode="&#x131;" horiz-adv-x="479" 
d="M330 0v991h-181v-991h181z" />
    <glyph glyph-name="glyph148" unicode="&#x142;" horiz-adv-x="496" 
d="M338 0v727l145 125v143v0l-145 -125v0v584h-180v-721l-140 -121v-141v0l140 119v0v-590h180z" />
    <glyph glyph-name="guilsinglright" unicode="&#xf8;" horiz-adv-x="1124" 
d="M565 1014q-207 0 -344 -138q-141 -137 -143 -387q2 -247 153 -383l-86 -122l76 -62v0l90 125v0q111 -70 252 -70q184 0 330 127q149 127 153 400q-2 235 -151 381l88 127l-80 55v0l-86 -123v0q-115 70 -250 70h-2zM332 244l-4 2q-74 112 -72 248q-2 143 74 260
q71 120 233 125q107 0 174 -60zM799 741l4 -2q41 -59 55 -123q14 -65 14 -118q-2 -170 -84 -275q-86 -108 -229 -110q-92 -2 -166 57z" />
    <glyph glyph-name="Igrave" unicode="&#x153;" horiz-adv-x="1767" 
d="M1687 465q7 31 7 86q0 69 -17 149q-18 78 -63 150q-45 74 -123 121q-80 45 -199 45q-241 0 -362 -238h-4q-107 236 -373 238q-205 -2 -336 -140q-137 -139 -139 -385q2 -235 135 -370q127 -139 328 -141q116 0 221 57q104 57 162 176h4q127 -236 393 -233q86 0 174 18
q86 16 147 49l-32 127q-47 -20 -111 -37q-63 -18 -156 -18q-143 0 -235 90q-94 90 -94 258zM555 881q154 -5 223 -119q68 -117 68 -264q-2 -174 -78 -277q-78 -106 -213 -106q-129 2 -209 112q-84 105 -84 269q-2 137 68 258q35 57 90 92t133 35h2zM1010 596q8 102 71 194
q33 46 82 70q49 27 113 27q76 0 125 -29q47 -29 73 -74q29 -43 37 -94q11 -49 6 -94h-507z" />
    <glyph glyph-name="approxequal" unicode="&#xdf;" horiz-adv-x="1122" 
d="M330 0v934q0 215 65 311q64 90 180 90q97 0 156 -57q57 -57 57 -166q0 -51 -18 -88q-182 -90 -182 -252q0 -84 49 -147q45 -64 110 -125q56 -47 84 -97q27 -51 27 -114q0 -72 -49 -121q-53 -51 -152 -51q-92 0 -172 41l-32 -138q94 -43 217 -43q174 3 270 93
q94 88 96 233q-2 109 -51 184q-23 37 -51 70q-31 31 -64 61q-47 50 -75 91q-29 38 -29 88q2 106 147 165q43 58 47 168q-2 170 -108 260q-107 87 -258 87q-184 0 -297 -105q-68 -59 -107 -166q-41 -106 -41 -280v-926h181z" />
    <glyph glyph-name="glyph152" unicode="&#xa6;" horiz-adv-x="489" 
d="M176 356v-716h137v716h-137zM176 1380v-716h137v716h-137z" />
    <glyph glyph-name="onesuperior" unicode="&#xd2;" horiz-adv-x="1411" 
d="M696 -23q271 3 453 187q182 186 186 540q-2 314 -168 504q-166 193 -454 195q-283 -2 -457 -197q-180 -194 -182 -528q2 -318 174 -506q168 -190 446 -195h2zM700 123q-211 4 -323 172q-117 162 -117 387q0 233 113 401q110 170 331 174q224 -6 334 -176
q107 -170 107 -385q0 -239 -115 -403q-115 -168 -328 -170h-2zM395 1696l264 -240h144l-191 240h-217z" />
    <glyph glyph-name="dagger" unicode="&#xc7;" horiz-adv-x="1198" 
d="M1083 186v0q-118 -57 -293 -57q-522 10 -528 555q12 563 539 569q174 -2 278 -57v0l43 145q-33 21 -117 41q-81 21 -210 21q-324 -2 -521 -199q-198 -194 -200 -526q2 -309 164 -486q155 -176 405 -206l-84 -152q72 -6 117 -26q41 -21 41 -60q-2 -33 -25 -47
q-26 -16 -61 -16q-60 0 -111 28l-31 -88q56 -33 142 -35q88 0 149 39q62 37 64 123q-2 60 -41 101q-41 38 -103 45l52 79q268 13 368 66z" />
    <glyph glyph-name="multiply" unicode="&#xd7;" horiz-adv-x="1221" 
d="M172 1077l-90 -90l440 -448l-440 -449l90 -90v0l438 448v0l439 -448v0l90 90l-439 449l439 448l-90 90v0l-439 -448v0l-438 448v0z" />
    <glyph glyph-name="cent" unicode="&#xd1;" horiz-adv-x="1347" 
d="M324 0v590q0 325 -13 569l6 2q109 -227 256 -461l439 -700h180v1380h-168v-579q-2 -303 20 -565l-6 -3q-47 107 -108 220q-62 110 -137 229l-441 698h-196v-1380h168zM532 1464q7 88 54 90q45 -2 100 -39q61 -38 125 -38q141 2 137 194h-92q-4 -51 -16 -68
q-15 -16 -43 -16q-47 2 -97 37q-59 41 -127 43q-63 -2 -98 -55q-37 -54 -35 -148h92z" />
    <glyph glyph-name="Icircumflex" unicode="&#xd5;" horiz-adv-x="1411" 
d="M696 -23q271 3 453 187q182 186 186 540q-2 314 -168 504q-166 193 -454 195q-283 -2 -457 -197q-180 -194 -182 -528q2 -318 174 -506q168 -190 446 -195h2zM700 123q-211 4 -323 172q-117 162 -117 387q0 233 113 401q110 170 331 174q224 -6 334 -176
q107 -170 107 -385q0 -239 -115 -403q-115 -168 -328 -170h-2zM543 1464q6 88 53 90q45 -2 100 -39q64 -38 125 -38q144 2 139 194h-92q-4 -51 -16 -68q-14 -16 -43 -16q-45 2 -98 37q-31 20 -62 33q-31 10 -63 10q-66 -2 -101 -55q-37 -54 -34 -148h92z" />
    <glyph glyph-name="quotedblright" unicode="&#xb5;" horiz-adv-x="1128" 
d="M979 991h-180v-629q-4 -83 -74 -157q-35 -33 -78 -56q-45 -22 -98 -22q-64 0 -107 27q-43 24 -69 65q-51 88 -49 211v561h-181v-1396h168l-10 497h6q23 -33 49 -55q29 -25 56 -37q57 -20 102 -20q121 2 195 63q73 59 104 121h4l10 -164h160q-8 117 -8 270v721z" />
    <glyph glyph-name="thorn" unicode="&#xd3;" horiz-adv-x="1411" 
d="M696 -23q271 3 453 187q182 186 186 540q-2 314 -168 504q-166 193 -454 195q-283 -2 -457 -197q-180 -194 -182 -528q2 -318 174 -506q168 -190 446 -195h2zM700 123q-211 4 -323 172q-117 162 -117 387q0 233 113 401q110 170 331 174q224 -6 334 -176
q107 -170 107 -385q0 -239 -115 -403q-115 -168 -328 -170h-2zM811 1696l-193 -242h146l264 242h-217z" />
    <glyph glyph-name="glyph160" unicode="&#xfe;" horiz-adv-x="1165" 
d="M149 1372v-1777h181v538h4q102 -153 305 -156q176 0 311 132q135 129 139 399q-2 235 -120 371q-119 135 -299 135q-240 -4 -336 -178h-4v536h-181zM330 575q2 52 18 101q37 94 109 143q71 51 159 51q140 -2 215 -106q76 -107 76 -258q-2 -180 -80 -281
q-82 -106 -215 -106q-192 2 -264 182q-18 43 -18 90v184z" />
    <glyph glyph-name="glyph161" unicode="&#xf0;" horiz-adv-x="1108" 
d="M547 113q-125 2 -203 108q-82 105 -82 264q-2 131 68 254q37 60 92 94q55 35 133 35q80 0 133 -26q51 -29 84 -70q72 -88 70 -274q-2 -172 -78 -277q-78 -106 -215 -108h-2zM240 1038v0l290 135v0q156 -118 242 -264l-4 -6q-59 55 -115 72q-57 16 -116 16
q-181 -2 -314 -133q-139 -133 -143 -375q2 -233 135 -368q131 -135 334 -138q186 0 330 129q145 130 149 410q0 229 -88 399q-90 187 -260 326l217 102l-45 90v0l-260 -124v0q-137 98 -287 165v0l-80 -112q119 -55 213 -123l-237 -113z" />
    <glyph glyph-name="Thorn" unicode="&#xcc;" horiz-adv-x="489" 
d="M154 1380v-1380h180v1380h-180zM-57 1696l262 -240h145l-192 240h-215z" />
    <glyph glyph-name="minus" unicode="&#xd4;" horiz-adv-x="1411" 
d="M696 -23q271 3 453 187q182 186 186 540q-2 314 -168 504q-166 193 -454 195q-283 -2 -457 -197q-180 -194 -182 -528q2 -318 174 -506q168 -190 446 -195h2zM700 123q-211 4 -323 172q-117 162 -117 387q0 233 113 401q110 170 331 174q224 -6 334 -176
q107 -170 107 -385q0 -239 -115 -403q-115 -168 -328 -170h-2zM637 1696l-209 -242h145l127 152h4l129 -152h148l-213 242h-131z" />
    <glyph glyph-name="degree" unicode="&#xc9;" horiz-adv-x="1008" 
d="M868 795h-534v436h567v149h-747v-1380h778v149h-598v498h534v148zM618 1696l-192 -242h145l265 242h-218z" />
    <glyph glyph-name="brokenbar" unicode="&#xcb;" horiz-adv-x="1008" 
d="M868 795h-534v436h567v149h-747v-1380h778v149h-598v498h534v148zM346 1477q47 0 74 32q24 29 24 72q-4 98 -98 102q-43 0 -70 -28q-30 -29 -30 -74q0 -43 28 -72q27 -32 70 -32h2zM721 1477q47 0 76 32q24 29 24 72q-4 98 -98 102q-43 0 -70 -28q-30 -29 -30 -74
q0 -43 28 -72q25 -32 68 -32h2z" />
    <glyph glyph-name="zcaron" unicode="&#xc1;" horiz-adv-x="1253" 
d="M868 434l148 -434h190l-471 1380h-215l-469 -1380h185l143 434h489zM416 573l135 400q20 65 39 129q16 61 28 121h7q28 -119 69 -252l137 -398h-415zM725 1696l-193 -242h146l262 242h-215z" />
    <glyph glyph-name="acute" unicode="&#xe7;" horiz-adv-x="915" 
d="M825 170q-35 -16 -90 -29q-55 -18 -131 -18q-149 0 -246 100q-96 96 -98 271q0 159 90 268q90 106 258 108q78 0 129 -14q51 -12 82 -33l41 137q-82 50 -252 54q-243 -2 -385 -148q-143 -145 -145 -381q8 -430 407 -499l-86 -152q76 -4 119 -22q41 -21 41 -62
q-2 -37 -25 -51q-24 -14 -63 -14q-59 0 -111 28l-28 -86q57 -35 137 -37q90 0 151 39q62 39 64 127q-2 62 -43 99q-43 36 -100 43l51 82q96 4 164 22q67 18 102 35z" />
    <glyph glyph-name="daggerdbl" unicode="&#xac;" horiz-adv-x="1221" 
d="M82 817v-123h926v-446h131v569h-1057z" />
    <glyph glyph-name="Iacute" unicode="&#xc3;" horiz-adv-x="1253" 
d="M868 434l148 -434h190l-471 1380h-215l-467 -1380h185l141 434h489zM416 573l135 400q20 65 39 129q16 61 28 121h7q28 -119 69 -252l137 -398h-415zM467 1464q6 88 53 90q45 -2 100 -39q62 -38 125 -38q142 2 138 194h-93q-4 -51 -16 -68q-14 -16 -43 -16q-47 2 -96 37
q-60 41 -127 43q-64 -2 -98 -55q-37 -54 -35 -148h92z" />
    <glyph glyph-name="glyph170" unicode="&#xde;" horiz-adv-x="1087" 
d="M156 0h176v319q67 -10 155 -10q230 0 373 111q143 110 145 327q-2 162 -112 267q-123 112 -365 112q-112 0 -196 -14v268h-176v-1380zM332 969q53 14 180 16q143 0 229 -59q84 -64 86 -199q-2 -268 -342 -274q-82 -2 -153 12v504z" />
    <glyph glyph-name="glyph171" unicode="&#xbc;" horiz-adv-x="1554" 
d="M1358 0v211h123v100h-123v498h-150l-395 -518v-80h410v-211h135zM1223 311h-261l-2 2l197 256q31 49 68 113h4q-6 -57 -6 -129v-242zM405 545v798h-124l-193 -90l23 -106v0l147 71h4v-673h143zM399 -23l776 1377h-114l-778 -1377h116z" />
    <glyph glyph-name="scaron" unicode="&#xc2;" horiz-adv-x="1253" 
d="M868 434l148 -434h190l-471 1380h-215l-469 -1380h185l143 434h489zM416 573l135 400q20 65 39 129q16 61 28 121h7q28 -119 69 -252l137 -398h-415zM571 1696l-209 -242h144l129 152h4l129 -152h147l-213 242h-131z" />
    <glyph glyph-name="sterling" unicode="&#xd6;" horiz-adv-x="1411" 
d="M698 -23q273 3 451 187q182 186 186 540q-2 314 -168 504q-166 193 -452 195q-281 -2 -459 -197q-180 -194 -182 -528q2 -318 174 -506q168 -190 448 -195h2zM700 123q-211 4 -323 172q-117 162 -117 387q0 233 113 401q110 170 331 174q224 -6 334 -176
q107 -170 107 -385q0 -239 -113 -403q-115 -168 -330 -170h-2zM518 1477q47 0 74 32q24 29 24 70q0 47 -26 76q-29 28 -72 28q-96 -4 -100 -104q0 -41 28 -70q27 -32 70 -32h2zM893 1477q47 0 76 32q24 29 24 70q0 47 -26 76q-29 28 -72 28q-96 -4 -100 -104q0 -41 28 -70
q25 -32 68 -32h2z" />
    <glyph glyph-name="glyph174" unicode="&#xbe;" horiz-adv-x="1554" 
d="M137 1192q53 49 170 55q70 -2 103 -31q28 -28 28 -71q-2 -70 -63 -99q-60 -30 -123 -30h-57v-94h55q86 0 151 -33q66 -33 68 -111q4 -49 -39 -92q-45 -45 -141 -45q-58 0 -111 20q-53 17 -80 33l-37 -102q80 -55 236 -58q158 3 242 74q81 68 81 166q0 80 -51 133
q-53 53 -139 64v4q152 57 156 186q0 78 -58 135q-59 56 -194 58q-76 0 -135 -21q-62 -18 -99 -45zM475 -23l776 1377h-114l-779 -1377h117zM1380 0v211h123v100h-123v498h-149l-395 -518v-80h409v-211h135zM1245 311h-262l-2 2l199 256q30 47 67 113h4q-6 -55 -6 -129v-242z
" />
    <glyph glyph-name="threesuperior" unicode="&#xdb;" horiz-adv-x="1325" 
d="M154 1380v-813q2 -319 143 -454q137 -136 352 -136q230 0 375 140q145 143 147 456v807h-180v-819q-8 -442 -336 -438q-311 -6 -321 438v819h-180zM608 1696l-207 -242h144l127 152h4l129 -152h147l-213 242h-131z" />
    <glyph glyph-name="onehalf" unicode="&#xd9;" horiz-adv-x="1325" 
d="M154 1380v-813q2 -319 143 -454q137 -136 352 -136q230 0 375 140q145 143 147 456v807h-180v-819q-8 -442 -336 -438q-311 -6 -321 438v819h-180zM371 1696l264 -240h145l-192 240h-217z" />
    <glyph glyph-name="section" unicode="&#xdc;" horiz-adv-x="1325" 
d="M154 1380v-813q2 -319 143 -454q137 -136 352 -136q230 0 375 140q145 143 147 456v807h-180v-819q-8 -442 -334 -438q-313 -6 -323 438v819h-180zM481 1477q47 0 74 32q25 29 25 70q0 47 -27 76q-29 28 -72 28q-96 -4 -100 -104q0 -41 29 -70q26 -32 69 -32h2zM854 1477
q47 0 76 32q24 29 24 70q0 47 -26 76q-29 28 -72 28q-96 -4 -100 -104q0 -41 28 -70q25 -32 68 -32h2z" />
    <glyph glyph-name="eth" unicode="&#xcd;" horiz-adv-x="489" 
d="M154 1380v-1380h180v1380h-180zM332 1696l-193 -242h146l262 242h-215z" />
    <glyph glyph-name="Egrave" unicode="&#xc0;" horiz-adv-x="1253" 
d="M868 434l148 -434h190l-471 1380h-215l-469 -1380h185l143 434h489zM416 573l135 400q20 65 39 129q16 61 28 121h7q28 -119 69 -252l137 -398h-415zM319 1696l265 -240h143l-190 240h-218z" />
    <glyph glyph-name="oslash" unicode="&#xb0;" horiz-adv-x="651" 
d="M332 1403q-117 -2 -193 -78q-78 -76 -80 -197q0 -110 76 -184q72 -78 193 -80q112 0 192 76q80 72 82 197q0 108 -70 186q-71 78 -198 80h-2zM332 1307q88 -3 127 -56q35 -55 35 -116q0 -76 -46 -123q-45 -52 -116 -52q-68 0 -113 50q-47 47 -47 118q0 68 41 123
q41 53 117 56h2z" />
    <glyph glyph-name="glyph181" unicode="&#xbd;" horiz-adv-x="1554" 
d="M377 545v798h-125l-193 -90l23 -106v0l147 71h4v-673h144zM358 -23l777 1377h-115l-776 -1377h114zM901 0h553v113h-348v4l61 57q121 102 197 199q74 94 76 204q0 89 -62 160q-65 70 -209 72q-161 -4 -252 -84l43 -94q31 22 76 43q43 20 96 20q80 -2 119 -41
q37 -41 37 -102q-2 -139 -258 -356l-129 -119v-76z" />
    <glyph glyph-name="glyph182" unicode="&#x2212;" horiz-adv-x="1221" 
d="M82 608v-123h1057v123h-1057z" />
    <glyph glyph-name="glyph183" unicode="&#xdd;" horiz-adv-x="1108" 
d="M643 0v588l461 792h-201l-199 -381q-81 -153 -139 -284h-4q-61 137 -137 284l-195 381h-204l438 -794v-586h180zM672 1696l-193 -242h146l262 242h-215z" />
    <glyph glyph-name="uni00B2" unicode="&#xb2;" horiz-adv-x="719" 
d="M90 545h553v112h-348v4l61 58q121 102 197 198q74 93 76 207q0 86 -62 158q-65 70 -209 72q-161 -4 -252 -84l43 -95q31 23 76 43q43 21 97 21q79 0 118 -39q37 -41 37 -104q-2 -138 -258 -357l-129 -119v-75z" />
    <glyph glyph-name="twosuperior" unicode="&#xda;" horiz-adv-x="1325" 
d="M154 1380v-813q2 -319 143 -454q137 -136 352 -136q230 0 375 140q145 143 147 456v807h-180v-819q-8 -442 -336 -438q-311 -6 -321 438v819h-180zM760 1696l-191 -242h144l264 242h-217z" />
    <glyph glyph-name="Delta" unicode="&#xae;" horiz-adv-x="1044" 
d="M524 1399q-192 -2 -321 -133q-133 -129 -135 -328q2 -197 135 -328q129 -133 321 -135q197 2 324 135q129 131 131 328q-2 199 -131 328q-127 131 -322 133h-2zM526 1327q158 -2 262 -113q105 -110 107 -278q-2 -166 -107 -275q-104 -110 -262 -114q-157 2 -260 114
q-108 109 -110 277q2 168 110 276q103 111 258 113h2zM438 891h58q96 2 110 -90q17 -105 35 -131h86q-12 16 -33 127q-16 112 -86 125v4q43 12 72 45q29 30 29 80q0 73 -48 106q-45 37 -159 39q-86 -2 -146 -12v-514h82v221zM438 1128q21 4 60 4q69 0 98 -26q27 -29 27 -64
q-3 -45 -37 -67q-35 -21 -88 -21h-60v174z" />
    <glyph glyph-name="guillemotleft" unicode="&#xa9;" horiz-adv-x="1386" 
d="M696 1327q-268 -4 -440 -184q-180 -178 -182 -447q2 -270 182 -448q172 -182 440 -187q266 5 439 187q174 178 178 448q-4 269 -178 447q-173 180 -437 184h-2zM698 1243q224 -2 367 -158q145 -153 147 -389q-2 -237 -147 -391q-143 -156 -367 -160q-225 2 -368 160
q-150 154 -152 385q2 240 152 395q143 156 366 158h2zM971 1010q-54 51 -226 55q-159 -2 -272 -103q-117 -100 -119 -278q0 -158 101 -262q96 -107 274 -109q66 0 133 15q33 8 64 20q30 12 55 29l-25 78q-75 -52 -209 -54q-139 2 -210 86q-76 80 -76 203q0 125 71 205
q72 80 213 82q76 -2 129 -19q54 -16 72 -30z" />
    <glyph glyph-name="Zcaron" unicode="&#xca;" horiz-adv-x="1008" 
d="M868 795h-534v436h567v149h-747v-1380h778v149h-598v498h534v148zM461 1696l-209 -242h143l129 152h4l129 -152h148l-213 242h-131z" />
    <glyph glyph-name="guillemotright" unicode="&#x2122;" horiz-adv-x="1642" 
d="M31 1380v-104h248v-711h122v711h250v104h-620zM1565 565l-62 815h-160l-159 -440q-15 -43 -27 -96q-14 -51 -31 -111h-4q-28 113 -57 205l-160 442h-162l-63 -815h119l30 492q4 108 4 221h7q28 -119 59 -221l166 -482h94l170 469q39 115 70 234h6q0 -123 2 -221l33 -492
h125z" />
    <glyph glyph-name="oe" unicode="&#xb1;" horiz-adv-x="1221" 
d="M545 1169v-397h-463v-123h463v-409h131v409h463v123h-463v397h-131zM82 123v-123h1057v123h-1057z" />
    <glyph glyph-name="glyph191" unicode="&#xd0;" horiz-adv-x="1374" 
d="M-4 629h168v-629q135 -14 325 -14q408 2 611 198q196 195 198 539q-2 338 -196 504q-176 170 -557 170q-213 -2 -381 -29v-596h-168v-143zM713 772h-369v465q72 16 209 18q561 -10 557 -534q-4 -588 -588 -592q-106 -2 -178 8v492h369v143z" />
    <glyph glyph-name="ucircumflex" unicode="&#xc4;" horiz-adv-x="1253" 
d="M868 434l150 -434h190l-471 1380h-217l-469 -1380h185l143 434h489zM416 573l135 400q20 65 39 129q16 61 30 121h5q14 -60 32 -121q19 -64 39 -131l137 -398h-417zM446 1477q48 0 74 32q25 29 25 70q0 47 -27 76q-29 28 -72 28q-96 -4 -100 -104q0 -41 29 -70
q26 -32 69 -32h2zM821 1477q47 0 76 32q25 29 25 70q0 47 -27 76q-29 28 -72 28q-96 -4 -100 -104q0 -41 29 -70q24 -32 67 -32h2z" />
    <glyph glyph-name="udieresis" unicode="&#xc5;" horiz-adv-x="1253" 
d="M870 434l148 -434h190l-463 1356q52 18 82 59q29 41 29 94q0 86 -55 140q-60 51 -164 53q-103 -2 -160 -56q-61 -55 -61 -137q0 -49 28 -90q25 -41 72 -59l-461 -1360h185l141 434h489zM635 1626q53 -2 82 -31q28 -30 28 -82q0 -47 -28 -77q-29 -33 -82 -33q-49 0 -78 35
q-31 32 -31 73q0 47 29 82q25 33 78 33h2zM416 573l145 428q37 117 59 220h5q32 -123 69 -242l139 -406h-417z" />
    <glyph glyph-name="tilde" unicode="&#x178;" horiz-adv-x="1108" 
d="M643 0v588l461 792h-201l-199 -381q-81 -153 -139 -284h-4q-61 137 -137 284l-195 381h-204l438 -794v-586h180zM373 1477q47 0 73 32q25 29 25 70q0 47 -27 76q-28 28 -71 28q-97 -4 -101 -104q0 -41 29 -70q27 -32 70 -32h2zM747 1477q48 0 76 32q25 29 25 70
q0 47 -27 76q-28 28 -71 28q-97 -4 -101 -104q0 -41 29 -70q24 -32 67 -32h2z" />
    <glyph glyph-name="Ugrave" unicode="&#xf7;" horiz-adv-x="1221" 
d="M610 793q51 0 80 32q29 33 29 80q0 53 -29 84t-80 31q-47 0 -76 -31q-32 -31 -32 -84q0 -47 30 -80q29 -32 76 -32h2zM1137 485v123h-1057v-123h1057zM608 74q51 0 80 32q29 33 29 80q0 54 -29 84q-29 31 -80 31q-47 0 -76 -31q-32 -30 -32 -84q0 -47 30 -80
q29 -32 76 -32h2z" />
    <glyph glyph-name="uni00B9" unicode="&#xb9;" horiz-adv-x="653" 
d="M442 545v798h-125l-192 -90l22 -106v0l148 71h4v-673h143z" />
    <glyph glyph-name="uni00B3" unicode="&#xb3;" horiz-adv-x="696" 
d="M147 1192q27 20 74 37q45 16 101 18q69 -2 100 -31q29 -28 29 -71q-3 -70 -64 -99q-59 -30 -123 -30h-57v-94h55q86 0 152 -33q63 -33 65 -111q4 -49 -39 -92q-45 -45 -141 -45q-57 0 -111 20q-53 17 -79 33l-37 -102q80 -55 235 -58q158 3 242 74q82 68 82 166
q0 80 -51 133q-54 53 -140 64v4q156 57 158 186q0 78 -57 135q-62 56 -193 58q-76 -2 -135 -19q-61 -18 -100 -45z" />
    <glyph glyph-name="Eth" unicode="&#xc8;" horiz-adv-x="1008" 
d="M868 795h-534v436h567v149h-747v-1380h778v149h-598v498h534v148zM250 1696l264 -240h143l-190 240h-217z" />
    <glyph glyph-name="yacute" unicode="&#xcf;" horiz-adv-x="489" 
d="M154 1380v-1380h180v1380h-180zM57 1477q47 0 72 32q25 29 25 70q-2 100 -97 104q-96 -4 -100 -104q0 -41 29 -70q26 -32 69 -32h2zM430 1477q47 0 76 32q24 29 24 70q0 47 -26 76q-29 28 -72 28q-96 -4 -100 -104q0 -41 28 -70q25 -32 68 -32h2z" />
    <glyph glyph-name="glyph200" unicode="&#x160;" horiz-adv-x="1010" 
d="M133 217l-47 -149q131 -86 352 -91q246 5 365 121q116 115 116 279q0 151 -86 246q-88 94 -264 159q-139 54 -207 115q-67 59 -67 152q-2 75 61 141q60 63 199 65q96 0 164 -20q65 -23 96 -45l49 145q-92 64 -303 68q-203 -2 -321 -105q-125 -104 -125 -270
q0 -143 98 -238q96 -94 266 -155q141 -49 201 -113q59 -65 59 -160q-4 -229 -288 -235q-191 2 -318 90v0zM596 1454l207 242h-142l-129 -152h-4l-129 152h-147l211 -242h133z" />
    <glyph glyph-name="Yacute" unicode="&#xce;" horiz-adv-x="489" 
d="M154 1380v-1380h180v1380h-180zM176 1696l-209 -242h144l129 152h4l129 -152h147l-213 242h-131z" />
    <glyph glyph-name="circumflex" unicode="&#xff;" horiz-adv-x="965" 
d="M18 991l365 -915q14 -31 14 -45q0 -17 -14 -43q-72 -140 -152 -201q-84 -70 -157 -88l45 -152q35 7 94 33q59 27 127 82q166 137 340 623l270 706h-190l-197 -581q-37 -113 -63 -207h-4q-27 96 -66 202l-215 586h-197zM329 1141q47 0 74 32q24 29 24 70q0 45 -27 74
q-28 28 -71 28t-72 -28q-31 -29 -31 -74q0 -41 29 -70q29 -32 72 -32h2zM702 1141q47 0 75 32q25 29 25 70q0 45 -27 74q-28 28 -71 28t-72 -28q-31 -29 -31 -74q0 -41 29 -70q26 -32 69 -32h3z" />
    <glyph glyph-name="glyph203" unicode="&#xfd;" horiz-adv-x="965" 
d="M18 991l365 -915q14 -31 14 -45q0 -17 -14 -43q-72 -140 -152 -201q-84 -70 -157 -88l45 -152q35 7 94 33q59 27 127 82q166 137 340 623l270 706h-190l-197 -581q-37 -113 -63 -207h-4q-27 96 -66 202l-215 586h-197zM601 1405l-180 -293h127l250 293h-197z" />
    <glyph glyph-name="ordfeminine" unicode="&#xf9;" horiz-adv-x="1128" 
d="M979 991h-180v-606q0 -53 -17 -92q-24 -64 -84 -113q-61 -51 -153 -53q-119 0 -170 90q-51 84 -51 227v547h-181v-579q0 -129 33 -211q33 -86 82 -135q51 -48 111 -68q59 -21 116 -21q133 3 215 64q80 59 113 121h4l10 -162h160q-8 117 -8 270v721zM304 1405l250 -293
h127l-180 293h-197z" />
    <glyph glyph-name="Omega" unicode="&#xfc;" horiz-adv-x="1128" 
d="M979 991h-180v-606q0 -53 -17 -92q-24 -64 -84 -113q-61 -51 -153 -53q-119 0 -170 90q-51 84 -51 227v547h-181v-579q0 -129 33 -211q33 -86 82 -135q51 -48 111 -68q59 -21 116 -21q133 3 215 64q80 59 113 121h4l10 -162h160q-8 117 -8 270v721zM389 1141q47 0 74 32
q24 29 24 70q0 45 -27 74q-28 28 -71 28t-72 -28q-31 -29 -31 -74q0 -41 29 -70q29 -32 72 -32h2zM762 1141q47 0 75 32q25 29 25 70q0 45 -27 74q-28 28 -71 28t-72 -28q-31 -29 -31 -74q0 -41 29 -70q26 -32 69 -32h3z" />
    <glyph glyph-name="ordmasculine" unicode="&#xfb;" horiz-adv-x="1128" 
d="M979 991h-180v-606q0 -53 -17 -92q-24 -64 -84 -113q-61 -51 -153 -53q-119 0 -170 90q-51 84 -51 227v547h-181v-579q0 -129 33 -211q33 -86 82 -135q51 -48 111 -68q59 -21 116 -21q133 3 215 64q80 59 113 121h4l10 -162h160q-8 117 -8 270v721zM509 1405l-193 -293
h131l119 192h4l119 -192h135l-196 293h-119z" />
    <glyph glyph-name="integral" unicode="&#xfa;" horiz-adv-x="1128" 
d="M979 991h-180v-606q0 -53 -17 -92q-24 -64 -84 -113q-61 -51 -153 -53q-119 0 -170 90q-51 84 -51 227v547h-181v-579q0 -129 33 -211q33 -86 82 -135q51 -48 111 -68q59 -21 116 -21q133 3 215 64q80 59 113 121h4l10 -162h160q-8 117 -8 270v721zM670 1405l-180 -293
h127l250 293h-197z" />
    <glyph glyph-name="glyph208" unicode="&#x161;" horiz-adv-x="811" 
d="M125 182l-43 -135q110 -67 278 -70q177 3 273 84q96 82 96 215q-2 215 -260 299q-94 35 -141 74q-45 37 -45 96q0 58 43 97q41 39 120 39q72 -2 123 -19q54 -18 80 -39l43 129q-86 60 -241 62q-158 -2 -250 -84q-92 -84 -92 -207q-3 -180 264 -281q98 -34 141 -75
q41 -43 41 -107q0 -63 -45 -104q-47 -43 -145 -43q-68 0 -132 24q-65 21 -108 45v0zM483 1112l194 293h-133l-123 -195h-4l-121 195h-137l199 -293h125z" />
    <glyph glyph-name="pi" unicode="&#xf5;" horiz-adv-x="1124" 
d="M555 -23q186 0 336 127q151 127 155 402q-2 231 -131 368q-129 138 -346 140q-209 0 -346 -138q-143 -137 -145 -389q2 -235 139 -370q131 -137 336 -140h2zM557 113q-131 2 -213 110q-84 105 -84 271q0 147 74 264q74 116 229 121q160 -5 230 -125q67 -119 67 -254
q-2 -172 -84 -277q-86 -108 -217 -110h-2zM414 1149q7 90 54 92q35 0 92 -35q59 -43 125 -45q143 2 137 197h-90q-2 -47 -14 -66q-15 -20 -39 -20q-47 2 -92 35q-35 22 -66 34q-29 13 -66 13q-63 -2 -100 -60q-33 -53 -33 -145h92z" />
    <glyph glyph-name="partialdiff" unicode="&#xf2;" horiz-adv-x="1124" 
d="M555 -23q186 0 336 127q151 127 155 402q-2 231 -131 368q-129 138 -346 140q-209 0 -346 -138q-143 -137 -145 -389q2 -235 139 -370q131 -137 336 -140h2zM557 113q-131 2 -213 110q-84 105 -84 271q0 147 74 264q74 116 229 121q160 -5 230 -125q67 -119 67 -254
q-2 -172 -84 -277q-86 -108 -217 -110h-2zM300 1405l250 -293h127l-180 293h-197z" />
    <glyph glyph-name="product" unicode="&#xf6;" horiz-adv-x="1124" 
d="M555 -23q186 0 336 127q151 127 155 402q-2 231 -131 368q-129 138 -346 140q-209 0 -346 -138q-143 -137 -145 -389q2 -235 139 -370q131 -137 336 -140h2zM557 113q-131 2 -213 110q-84 105 -84 271q0 147 74 264q74 116 229 121q160 -5 230 -125q67 -119 67 -254
q-2 -172 -84 -277q-86 -108 -217 -110h-2zM385 1141q47 0 74 32q24 29 24 70q0 45 -27 74q-28 28 -71 28t-72 -28q-31 -29 -31 -74q0 -41 29 -70q29 -32 72 -32h2zM758 1141q47 0 75 32q25 29 25 70q0 45 -27 74q-28 28 -71 28t-72 -28q-31 -29 -31 -74q0 -41 29 -70
q26 -32 69 -32h3z" />
    <glyph glyph-name="summation" unicode="&#xf4;" horiz-adv-x="1124" 
d="M555 -23q186 0 336 127q151 127 155 402q-2 231 -131 368q-129 138 -346 140q-209 0 -346 -138q-143 -137 -145 -389q2 -235 139 -370q131 -137 336 -140h2zM557 113q-131 2 -213 110q-84 105 -84 271q0 147 74 264q74 116 229 121q160 -5 230 -125q67 -119 67 -254
q-2 -172 -84 -277q-86 -108 -217 -110h-2zM509 1405l-193 -293h131l119 192h4l119 -192h135l-196 293h-119z" />
    <glyph glyph-name="mu" unicode="&#xf3;" horiz-adv-x="1124" 
d="M555 -23q186 0 336 127q151 127 155 402q-2 231 -131 368q-129 138 -346 140q-209 0 -346 -138q-143 -137 -145 -389q2 -235 139 -370q131 -137 336 -140h2zM557 113q-131 2 -213 110q-84 105 -84 271q0 147 74 264q74 116 229 121q160 -5 230 -125q67 -119 67 -254
q-2 -172 -84 -277q-86 -108 -217 -110h-2zM649 1405l-180 -293h127l250 293h-197z" />
    <glyph glyph-name="yen" unicode="&#xf1;" horiz-adv-x="1137" 
d="M149 0h181v598q0 47 12 84q27 80 92 131q64 51 150 53q127 -2 180 -86q49 -86 49 -209v-571h180v592q0 129 -35 211q-34 84 -88 129q-53 45 -112 65q-60 17 -115 17q-123 -2 -207 -56q-84 -55 -121 -129h-4l-10 162h-160q8 -117 8 -268v-723zM418 1149q7 90 54 92
q35 0 92 -35q59 -43 125 -45q143 2 137 197h-90q-2 -47 -14 -66q-15 -20 -39 -20q-47 2 -92 35q-35 22 -66 34q-29 13 -66 13q-63 -2 -100 -60q-33 -53 -33 -145h92z" />
    <glyph glyph-name="plusminus" unicode="&#xec;" horiz-adv-x="479" 
d="M330 0v991h-181v-991h181zM-65 1405l250 -293h127l-180 293h-197z" />
    <glyph glyph-name="greaterequal" unicode="&#xef;" horiz-adv-x="479" 
d="M330 0v991h-181v-991h181zM46 1141q47 0 74 32q24 29 24 70q0 45 -27 74q-28 28 -71 28t-72 -28q-31 -29 -31 -74q0 -41 29 -70q29 -32 72 -32h2zM419 1141q47 0 75 32q25 29 25 70q0 45 -27 74q-28 28 -71 28t-72 -28q-31 -29 -31 -74q0 -41 29 -70q26 -32 69 -32h3z
" />
    <glyph glyph-name="lessequal" unicode="&#xee;" horiz-adv-x="479" 
d="M330 0v991h-181v-991h181zM173 1405l-193 -293h131l119 192h4l119 -192h135l-196 293h-119z" />
    <glyph glyph-name="infinity" unicode="&#xed;" horiz-adv-x="479" 
d="M330 0v991h-181v-991h181zM329 1405l-180 -293h127l250 293h-197z" />
    <glyph glyph-name="notequal" unicode="&#xe8;" horiz-adv-x="1026" 
d="M946 463q6 31 6 86q0 71 -16 153q-21 78 -66 150t-125 119q-77 45 -200 45q-217 -2 -340 -154q-127 -149 -127 -383q0 -225 131 -360q127 -137 356 -139q121 2 203 22q84 18 129 41l-33 127q-47 -18 -110 -33q-33 -6 -74 -10q-41 -6 -90 -6q-137 0 -234 82
q-96 82 -104 262zM254 594q4 26 10 51t15 49q18 51 51 94q63 95 200 99q76 0 125 -29t76 -74q53 -96 47 -190h-524zM284 1405l250 -293h127l-180 293h-197z" />
    <glyph glyph-name="Oslash" unicode="&#xeb;" horiz-adv-x="1026" 
d="M946 463q6 31 6 86q0 71 -16 153q-21 78 -66 150t-125 119q-77 45 -200 45q-217 -2 -340 -154q-127 -149 -127 -383q0 -225 131 -360q127 -137 356 -139q121 2 203 22q84 18 129 41l-33 127q-47 -18 -110 -33q-33 -6 -74 -10q-41 -6 -90 -6q-137 0 -234 82
q-96 82 -104 262zM254 594q4 26 10 51t15 49q18 51 51 94q63 95 200 99q76 0 125 -29t76 -74q53 -96 47 -190h-524zM370 1141q47 0 74 32q24 29 24 70q0 45 -27 74q-28 28 -71 28t-72 -28q-31 -29 -31 -74q0 -41 29 -70q29 -32 72 -32h2zM743 1141q47 0 75 32q25 29 25 70
q0 45 -27 74q-28 28 -71 28t-72 -28q-31 -29 -31 -74q0 -41 29 -70q26 -32 69 -32h3z" />
    <glyph glyph-name="AE" unicode="&#xea;" horiz-adv-x="1026" 
d="M946 463q6 31 6 86q0 71 -16 153q-21 78 -66 150t-125 119q-77 45 -200 45q-217 -2 -340 -154q-127 -149 -127 -383q0 -225 131 -360q127 -137 356 -139q121 2 203 22q84 18 129 41l-33 127q-47 -18 -110 -33q-33 -6 -74 -10q-41 -6 -90 -6q-137 0 -234 82
q-96 82 -104 262zM254 594q4 26 10 51t15 49q18 51 51 94q63 95 200 99q76 0 125 -29t76 -74q53 -96 47 -190h-524zM487 1405l-193 -293h131l119 192h4l119 -192h135l-196 293h-119z" />
    <glyph glyph-name="dieresis" unicode="&#xe9;" horiz-adv-x="1026" 
d="M946 463q6 31 6 86q0 71 -16 153q-21 78 -66 150t-125 119q-77 45 -200 45q-217 -2 -340 -154q-127 -149 -127 -383q0 -225 131 -360q127 -137 356 -139q121 2 203 22q84 18 129 41l-33 127q-47 -18 -110 -33q-33 -6 -74 -10q-41 -6 -90 -6q-137 0 -234 82
q-96 82 -104 262zM254 594q4 26 10 51t15 49q18 51 51 94q63 95 200 99q76 0 125 -29t76 -74q53 -96 47 -190h-524zM637 1405l-180 -293h127l250 293h-197z" />
    <glyph glyph-name="copyright" unicode="&#xe3;" horiz-adv-x="987" 
d="M848 608q0 78 -15 150q-16 71 -59 129q-41 59 -115 94q-75 33 -190 33q-197 -2 -328 -86l41 -121v0q113 72 260 74q78 2 123 -21q47 -24 68 -61q22 -35 31 -74q4 -41 4 -74v-20q-592 -2 -596 -369q0 -110 77 -194q74 -86 226 -91q108 3 186 46t117 102h6l16 -125h162
q-14 104 -14 238v370zM672 334q0 -29 -8 -58q-21 -63 -82 -112q-62 -53 -162 -53q-70 0 -117 43q-51 41 -51 129q0 73 39 118q39 43 98 68q64 25 137 33q72 8 146 4v-172zM335 1149q7 90 54 92q35 0 92 -35q59 -43 125 -45q143 2 137 197h-90q-2 -47 -14 -66
q-15 -20 -39 -20q-47 2 -92 35q-35 22 -66 34q-29 13 -66 13q-63 -2 -100 -60q-33 -53 -33 -145h92z" />
    <glyph glyph-name="trademark" unicode="&#xe5;" horiz-adv-x="987" 
d="M848 608q0 78 -15 150q-16 71 -59 129q-41 59 -115 94q-75 33 -190 33q-197 -2 -328 -86l41 -121v0q113 72 260 74q78 2 123 -21q47 -24 68 -61q22 -35 31 -74q4 -41 4 -74v-20q-592 -2 -596 -369q0 -110 77 -194q74 -86 226 -91q108 3 186 46t117 102h6l16 -125h162
q-14 104 -14 238v370zM672 334q0 -29 -8 -58q-21 -63 -82 -112q-62 -53 -162 -53q-70 0 -117 43q-51 41 -51 129q0 73 39 118q39 43 98 68q64 25 137 33q72 8 146 4v-172zM499 1474q-97 -2 -152 -55q-57 -55 -57 -137q0 -80 59 -131q57 -57 150 -57q90 0 147 55
q57 51 57 133q0 86 -53 139q-55 51 -149 53h-2zM497 1397q49 0 77 -33q29 -33 29 -80t-29 -78q-28 -35 -77 -35q-45 0 -74 37q-29 33 -29 74q0 47 29 82q24 33 72 33h2z" />
    <glyph glyph-name="paragraph" unicode="&#xe0;" horiz-adv-x="987" 
d="M848 608q0 78 -15 150q-16 71 -59 129q-41 59 -115 94q-75 33 -190 33q-197 -2 -328 -86l41 -121v0q113 72 260 74q78 2 123 -21q47 -24 68 -61q22 -35 31 -74q4 -41 4 -74v-20q-592 -2 -596 -369q0 -110 77 -194q74 -86 226 -91q108 3 186 46t117 102h6l16 -125h162
q-14 104 -14 238v370zM672 334q0 -29 -8 -58q-21 -63 -82 -112q-62 -53 -162 -53q-70 0 -117 43q-51 41 -51 129q0 73 39 118q39 43 98 68q64 25 137 33q72 8 146 4v-172zM199 1405l250 -293h127l-180 293h-197z" />
    <glyph glyph-name="registered" unicode="&#xe4;" horiz-adv-x="987" 
d="M848 608q0 78 -15 150q-16 71 -59 129q-41 59 -115 94q-75 33 -190 33q-197 -2 -328 -86l41 -121v0q113 72 260 74q78 2 123 -21q47 -24 68 -61q22 -35 31 -74q4 -41 4 -74v-20q-592 -2 -596 -369q0 -110 77 -194q74 -86 226 -91q108 3 186 46t117 102h6l16 -125h162
q-14 104 -14 238v370zM672 334q0 -29 -8 -58q-21 -63 -82 -112q-62 -53 -162 -53q-70 0 -117 43q-51 41 -51 129q0 73 39 118q39 43 98 68q64 25 137 33q72 8 146 4v-172zM312 1141q47 0 74 32q24 29 24 70q0 45 -27 74q-28 28 -71 28t-72 -28q-31 -29 -31 -74q0 -41 29 -70
q29 -32 72 -32h2zM685 1141q47 0 75 32q25 29 25 70q0 45 -27 74q-28 28 -71 28t-72 -28q-31 -29 -31 -74q0 -41 29 -70q26 -32 69 -32h3z" />
    <glyph glyph-name="germandbls" unicode="&#xe2;" horiz-adv-x="987" 
d="M848 608q0 78 -15 150q-16 71 -59 129q-41 59 -115 94q-75 33 -190 33q-197 -2 -328 -86l41 -121v0q113 72 260 74q78 2 123 -21q47 -24 68 -61q22 -35 31 -74q4 -41 4 -74v-20q-592 -2 -596 -369q0 -110 77 -194q74 -86 226 -91q108 3 186 46t117 102h6l16 -125h162
q-14 104 -14 238v370zM672 334q0 -29 -8 -58q-21 -63 -82 -112q-62 -53 -162 -53q-70 0 -117 43q-51 41 -51 129q0 73 39 118q39 43 98 68q64 25 137 33q72 8 146 4v-172zM430 1405l-193 -293h131l119 192h4l119 -192h135l-196 293h-119z" />
    <glyph glyph-name="bullet" unicode="&#xe1;" horiz-adv-x="987" 
d="M848 608q0 78 -15 150q-16 71 -59 129q-41 59 -115 94q-75 33 -190 33q-197 -2 -328 -86l41 -121v0q113 72 260 74q78 2 123 -21q47 -24 68 -61q22 -35 31 -74q4 -41 4 -74v-20q-592 -2 -596 -369q0 -110 77 -194q74 -86 226 -91q108 3 186 46t117 102h6l16 -125h162
q-14 104 -14 238v370zM672 334q0 -29 -8 -58q-21 -63 -82 -112q-62 -53 -162 -53q-70 0 -117 43q-51 41 -51 129q0 73 39 118q39 43 98 68q64 25 137 33q72 8 146 4v-172zM574 1405l-180 -293h127l250 293h-197z" />
    </font>
</defs>
</svg>
